<svg xmlns="http://www.w3.org/2000/svg" xmlns:xlink="http://www.w3.org/1999/xlink" xmlns:lucid="lucid" width="1481.15" height="1295.23"><g transform="translate(0 0)" lucid:page-tab-id="0_0"><path d="M960 195.17l6.3 3.15 11.13-38.25-11.14-38.4-6.3 3.14v70.37z" fill="#9d5025"/><path d="M978.48 124.55l-12.18-2.83v76.6l12.18-2.84v-70.93z" fill="#f58536"/><path d="M973.87 117.9l9.25-4.7 11.54 46.88-11.54 46.68-9.25-4.67v-84.2z" fill="#9d5025"/><path d="M1002.07 200.5l-18.94 6.08V113.2l18.94 6.08v81.23z" fill="#f58536"/><path d="M1045.1 129.63h7.56v58.23l-7.57-.4v-57.83z" fill="#9d5025"/><path d="M1015.7 130.47l8.5-4.4 27.87 3.56.82 7.45-7.64 1.08-29.57-7.7z" fill="#6b3a19"/><path d="M1015.93 189.5l8.5 4.4 28.7-11-7.63-1.07-29.57 7.68z" fill="#fbbf93"/><path d="M1018.08 177.15l15.17 2.04v-38.4l-15.17 2.03v34.32z" fill="#9d5025"/><path d="M994.66 212.56l14.8 7.44 12.72-60.12-12.7-59.88-14.82 7.44v105.12z" fill="#9d5025"/><path d="M1009.5 100v120l49.5-24.84v-70.32zm43.15 83.04l-28.36 8.52v-63.12l28.35 8.52z" fill="#f58536"/><path d="M1033.25 140.8v38.5l15.78-19.25-15.78-19.25z" fill="#f58536"/><use xlink:href="#a" transform="matrix(1,0,0,1,960,220) translate(16.79012345679012 24.888888888888893)"/><path d="M960 170l-60.22-1.22-62.5-4.02-124-10.9" stroke="#063" stroke-width="2" fill="none"/><path d="M960 171h-.02l.02-1.16z" fill="#063"/><path d="M698.35 152.56l14.62-3.37-.8 9.23z" stroke="#063" stroke-width="2" fill="#063"/><path d="M565.5 127.83c.72-2.67 3.54-4.83 6.3-4.83H705c2.76 0 4.42 2.16 3.7 4.83l-14.2 53.34c-.72 2.67-3.54 4.83-6.3 4.83H555c-2.76 0-4.42-2.16-3.7-4.83z" stroke="#c92d39" stroke-width="2" fill="#f93"/><use xlink:href="#b" transform="matrix(1,0,0,1,590,123) translate(0.1249999999999929 35.1)"/><path d="M565.5 181.83c.72-2.67 3.54-4.83 6.3-4.83H705c2.76 0 4.42 2.16 3.7 4.83l-14.2 53.34c-.72 2.67-3.54 4.83-6.3 4.83H555c-2.76 0-4.42-2.16-3.7-4.83z" stroke="#19967d" stroke-width="2" fill="#a3d977"/><use xlink:href="#c" transform="matrix(1,0,0,1,590,177) translate(-4.375000000000007 35.1)"/><path d="M946 600l32.1-.7 36.72-2.32 36.66-3.84 33.66-4.96 29.6-5.63 25.5-5.97 21.8-6.07 18.62-6.03 15.95-5.93 13.73-5.76 11.87-5.58 10.32-5.4 9.02-5.2 7.93-5.02 7-4.86 6.2-4.7 5.54-4.6 4.96-4.44 4.43-4.34 3.98-4.25 3.6-4.18 3.25-4.1 2.94-4.04 2.66-4 2.4-3.97 2.18-3.94 1.96-3.94 1.76-3.94 1.57-3.97 1.38-3.98 1.22-4.03.6-2.32" stroke="#0c7cba" stroke-width="2" fill="none"/><path d="M946.03 601H946v-1.16zM1311.78 458.02l-9.15-1.48 6.85-13.35z" fill="#0c7cba"/><path d="M1312.98 459.22l-11.87-1.92 8.9-17.3zm-8.83-3.45l6.43 1.04-1.6-10.4z" fill="#0c7cba"/><path d="M434.24 342.04l-2-.04-1.94-.12-1.87-.2-1.8-.27-1.77-.32-1.73-.4-1.7-.48-1.67-.55-1.67-.62-1.66-.7-1.66-.77-1.67-.88-1.67-.97-1.72-1.08-1.74-1.2-1.8-1.38-1.85-1.54-1.93-1.74-2.04-2-2.17-2.32-2.34-2.7-2.58-3.26-2.9-4.02-3.48-5.23-4.6-7.6-23.8-42.84-3.47-5.23-2.92-4.02-2.58-3.25-2.34-2.72-2.17-2.3-2.05-2-1.94-1.76-1.85-1.53-1.8-1.38-1.74-1.22-1.7-1.08-1.7-.98-1.66-.87-1.66-.78-.08-.04" stroke="#66f" stroke-width="2" fill="none"/><path d="M434.24 343.05l-.16-.02.16-1z" fill="#66f"/><path d="M314.25 226.64l14.9-1.64-1.87 9.07z" stroke="#66f" stroke-width="2" fill="#66f"/><path d="M390 615l13.77-5.67 11.55-5.32 9.8-5 8.4-4.78 7.3-4.55 6.4-4.36 5.63-4.2 5-4.1 4.5-3.97 4.04-3.9 3.64-3.83 3.32-3.8 3.03-3.75 2.76-3.75 2.55-3.77 2.35-3.8 2.15-3.85 2-3.93 1.82-4.02 1.68-4.16 1.54-4.32 1.4-4.53 1.27-4.8 1.14-5.13.98-5.56.82-6.14.63-6.93.4-8.14.06-10.23-.56-15.4-2.24-37.86" stroke="#7ab648" stroke-width="4" fill="none"/><path d="M390.75 616.85l-.76.3V615zM501.72 420.48l-9.25.46 3.9-14.48z" fill="#7ab648"/><path d="M504.57 422.34l-14.75.74 6.24-23.08zm-9.46-3.53l3.77-.18-2.17-5.7z" fill="#7ab648"/><path d="M550 341.2l3.94-.1 3.78-.28 3.65-.46 3.52-.62 3.4-.78 3.33-.93 3.24-1.1 3.17-1.24 3.1-1.4 3.05-1.57 3-1.73 2.94-1.9 2.9-2.1 2.87-2.3 2.84-2.5 2.8-2.72 2.74-2.96 2.7-3.22 2.63-3.5 2.6-3.78 2.48-4.1 2.4-4.4 2.27-4.73 2.13-5.08 1.96-5.4 1.76-5.72 1.53-6.02 1.26-6.3.76-5.1" stroke="#0c7cba" stroke-width="2" fill="none"/><path d="M550.1 342.2h-.1v-1.02zM633.43 258.78l-9.25-.64 5.6-13.9z" fill="#0c7cba"/><path d="M634.73 259.87l-12-.82L630 241zm-9.1-2.63l6.5.45-2.57-10.24z" fill="#0c7cba"/><path d="M959 350l-10.15-.2-9.46-.6-8.9-.94-8.44-1.24-8.08-1.54-7.83-1.84-7.64-2.13-7.53-2.44-7.53-2.8-7.6-3.2-7.83-3.68-8.17-4.28-8.78-5.08-9.8-6.23-11.74-8.18-16.74-12.77-71.36-57.1-16.32-11.36-14.16-9" stroke="#ef8d22" stroke-width="2" fill="none"/><path d="M959 351h-.04l.04-1.1z" fill="#ef8d22"/><path d="M697.93 207.9l14.67 3.12-4.63 8.03z" stroke="#ef8d22" stroke-width="2" fill="#ef8d22"/><path d="M1310 300l-.12-5.64-.33-5.3-.52-5-.7-4.73-.86-4.5-1-4.3-1.16-4.14-1.3-4-1.4-3.83-1.58-3.72-1.7-3.62-1.85-3.53-2-3.46-2.15-3.4-2.3-3.33-2.5-3.28-2.7-3.25-2.92-3.23-3.14-3.2-3.4-3.2-3.7-3.2-4.05-3.2-4.4-3.2-4.85-3.23-5.33-3.22-5.92-3.25-6.6-3.26-7.36-3.3-8.33-3.28-9.44-3.3-10.84-3.26-12.53-3.2-14.68-3.12-17.4-2.93-21-2.65-25.98-2.16-33.56-1.38-3.15-.04" stroke="#c92d39" stroke-width="2" fill="none"/><path d="M1311.03 300.52L1310 300v.02l1.13 2.17.04.73-1.17.07v-3l-.97.48-.03-.43 2-.1zM1076.44 174.8l-14.2-4.77 14.3-4.5z" fill="#c92d39"/><path d="M1077.43 176.2L1059 170l18.55-5.82zm-11.97-6.13l10 3.36.06-6.52z" fill="#c92d39"/><path d="M1268.08 370l-28.36-7.5-46.93-13.28-10.88-2.4-9.43-1.65-9.13-1.2-9.42-.85-10.25-.5-11.7-.05-14.03.5-17.88 1.42-23.08 2.8" stroke="#c92d39" stroke-width="2" fill="none"/><path d="M1271.23 369.8l-3.15.2.25-.97zM1077 352l-14.8-2.48 13.4-6.7z" fill="#c92d39"/><path d="M1078.18 353.2l-19.2-3.2 17.42-8.7zm-12.8-4.16l10.4 1.74-.95-6.45z" fill="#c92d39"/><path d="M768 1180c17.67 0 32 17.9 32 40s-14.33 40-32 40h-96c-17.67 0-32-17.9-32-40s14.33-40 32-40z" stroke="#834187" stroke-width="2" fill="#b391b5"/><use xlink:href="#d" transform="matrix(1,0,0,1,656,1180) translate(32.25925925925925 45.333333333333336)"/><path d="M801 1220h604c2.76 0 5-2.24 5-5V64c0-2.76-2.24-5-5-5h-370c-2.76 0-5 2.24-5 5v16.76" stroke="#834187" stroke-width="2" fill="none"/><path d="M801 1221h-1.06l.06-1-.04-1H801z" fill="#834187"/><path d="M1030 95.76l-4.64-14.26h9.28z" stroke="#834187" stroke-width="2" fill="#834187"/><path d="M646.72 898.94v135.03c0 2.76 2.23 5 5 5H715c2.76 0 5 2.24 5 5v116.8" stroke="#834187" stroke-width="2" fill="none"/><path d="M646.72 898.94h-1v-.97zM720 1175.76l-4.64-14.26h9.28z" fill="#834187"/><path d="M720 1179l-6-18.5h12zm-3.26-16.5l3.26 10.03 3.26-10.03z" fill="#834187"/><path d="M639 1220H85c-2.76 0-5-2.24-5-5V64c0-2.76 2.24-5 5-5h540c2.76 0 5 2.24 5 5v36.53" fill="none"/><path d="M641 1220c0 1.1-.9 2-2 2s-2-.9-2-2 .9-2 2-2 2 .9 2 2zm-8.03 0c0 1.1-.9 2-2 2s-2-.9-2-2 .9-2 2-2 2 .9 2 2zm-8.03 0c0 1.1-.9 2-2 2s-2-.9-2-2 .9-2 2-2 2 .9 2 2zm-8.03 0c0 1.1-.88 2-2 2-1.1 0-2-.9-2-2s.9-2 2-2c1.12 0 2 .9 2 2zm-8.02 0c0 1.1-.9 2-2 2s-2-.9-2-2 .9-2 2-2 2 .9 2 2zm-8.03 0c0 1.1-.9 2-2 2s-2-.9-2-2 .9-2 2-2 2 .9 2 2zm-8.02 0c0 1.1-.9 2-2 2s-2-.9-2-2 .9-2 2-2 2 .9 2 2zm-8.03 0c0 1.1-.9 2-2 2s-2-.9-2-2 .9-2 2-2 2 .9 2 2zm-8.03 0c0 1.1-.9 2-2 2s-2-.9-2-2 .9-2 2-2 2 .9 2 2zm-8.03 0c0 1.1-.9 2-2 2s-2-.9-2-2 .9-2 2-2 2 .9 2 2zm-8.03 0c0 1.1-.9 2-2 2s-2-.9-2-2 .9-2 2-2 2 .9 2 2zm-8.02 0c0 1.1-.9 2-2 2s-2-.9-2-2 .9-2 2-2 2 .9 2 2zm-8.03 0c0 1.1-.9 2-2 2s-2-.9-2-2 .9-2 2-2 2 .9 2 2zm-8.03 0c0 1.1-.9 2-2 2s-2-.9-2-2 .9-2 2-2 2 .9 2 2zm-8.03 0c0 1.1-.9 2-2 2s-2-.9-2-2 .9-2 2-2 2 .9 2 2zm-8.04 0c0 1.1-.9 2-2 2s-2-.9-2-2 .9-2 2-2 2 .9 2 2zm-8.02 0c0 1.1-.9 2-2 2s-2-.9-2-2 .9-2 2-2 2 .9 2 2zm-8.03 0c0 1.1-.9 2-2 2s-2-.9-2-2 .9-2 2-2 2 .9 2 2zm-8.02 0c0 1.1-.9 2-2 2s-2-.9-2-2 .9-2 2-2 2 .9 2 2zm-8.03 0c0 1.1-.9 2-2 2s-2-.9-2-2 .9-2 2-2 2 .9 2 2zm-8.03 0c0 1.1-.9 2-2 2s-2-.9-2-2 .9-2 2-2 2 .9 2 2zm-8.03 0c0 1.1-.9 2-2 2s-2-.9-2-2 .9-2 2-2 2 .9 2 2zm-8.04 0c0 1.1-.9 2-2 2s-2-.9-2-2 .9-2 2-2 2 .9 2 2zm-8.03 0c0 1.1-.9 2-2 2s-2-.9-2-2 .9-2 2-2 2 .9 2 2zm-8.03 0c0 1.1-.9 2-2 2s-2-.9-2-2 .9-2 2-2 2 .9 2 2zm-8.03 0c0 1.1-.9 2-2 2s-2-.9-2-2 .9-2 2-2 2 .9 2 2zm-8.02 0c0 1.1-.9 2-2 2s-2-.9-2-2 .9-2 2-2 2 .9 2 2zm-8.03 0c0 1.1-.9 2-2 2s-2-.9-2-2 .9-2 2-2 2 .9 2 2zm-8.03 0c0 1.1-.9 2-2 2-1.12 0-2-.9-2-2s.88-2 2-2c1.1 0 2 .9 2 2zm-8.04 0c0 1.1-.9 2-2 2s-2-.9-2-2 .9-2 2-2 2 .9 2 2zm-8.03 0c0 1.1-.9 2-2 2s-2-.9-2-2 .9-2 2-2 2 .9 2 2zm-8.03 0c0 1.1-.9 2-2 2s-2-.9-2-2 .9-2 2-2 2 .9 2 2zm-8.03 0c0 1.1-.9 2-2 2s-2-.9-2-2 .9-2 2-2 2 .9 2 2zm-8.03 0c0 1.1-.9 2-2 2s-2-.9-2-2 .9-2 2-2 2 .9 2 2zm-8.03 0c0 1.1-.88 2-2 2-1.1 0-2-.9-2-2s.9-2 2-2c1.12 0 2 .9 2 2zm-8 0c0 1.1-.9 2-2 2-1.12 0-2-.9-2-2s.88-2 2-2c1.1 0 2 .9 2 2zm-8.04 0c0 1.1-.9 2-2 2s-2-.9-2-2 .9-2 2-2 2 .9 2 2zm-8.03 0c0 1.1-.9 2-2 2s-2-.9-2-2 .9-2 2-2 2 .9 2 2zm-8.03 0c0 1.1-.9 2-2 2s-2-.9-2-2 .9-2 2-2 2 .9 2 2zm-8.03 0c0 1.1-.9 2-2 2s-2-.9-2-2 .9-2 2-2 2 .9 2 2zm-8.03 0c0 1.1-.9 2-2 2s-2-.9-2-2 .9-2 2-2 2 .9 2 2zm-8.03 0c0 1.1-.88 2-2 2-1.1 0-2-.9-2-2s.9-2 2-2c1.12 0 2 .9 2 2zm-8.02 0c0 1.1-.9 2-2 2s-2-.9-2-2 .9-2 2-2 2 .9 2 2zm-8.03 0c0 1.1-.9 2-2 2s-2-.9-2-2 .9-2 2-2 2 .9 2 2zm-8.03 0c0 1.1-.9 2-2 2s-2-.9-2-2 .9-2 2-2 2 .9 2 2zm-8.02 0c0 1.1-.9 2-2 2s-2-.9-2-2 .9-2 2-2 2 .9 2 2zm-8.03 0c0 1.1-.9 2-2 2s-2-.9-2-2 .9-2 2-2 2 .9 2 2zm-8.03 0c0 1.1-.9 2-2 2s-2-.9-2-2 .9-2 2-2 2 .9 2 2zm-8.03 0c0 1.1-.9 2-2 2s-2-.9-2-2 .9-2 2-2 2 .9 2 2zm-8.02 0c0 1.1-.9 2-2 2s-2-.9-2-2 .9-2 2-2 2 .9 2 2zm-8.03 0c0 1.1-.9 2-2 2s-2-.9-2-2 .9-2 2-2 2 .9 2 2zm-8.03 0c0 1.1-.9 2-2 2s-2-.9-2-2 .9-2 2-2 2 .9 2 2zm-8.03 0c0 1.1-.9 2-2 2s-2-.9-2-2 .9-2 2-2 2 .9 2 2zm-8.04 0c0 1.1-.9 2-2 2s-2-.9-2-2 .9-2 2-2 2 .9 2 2zm-8.03 0c0 1.1-.9 2-2 2s-2-.9-2-2 .9-2 2-2 2 .9 2 2zm-8.02 0c0 1.1-.9 2-2 2s-2-.9-2-2 .9-2 2-2 2 .9 2 2zm-8.02 0c0 1.1-.9 2-2 2s-2-.9-2-2 .9-2 2-2 2 .9 2 2zm-8.03 0c0 1.1-.9 2-2 2s-2-.9-2-2 .9-2 2-2 2 .9 2 2zm-8.03 0c0 1.1-.9 2-2 2s-2-.9-2-2 .9-2 2-2 2 .9 2 2zm-8.03 0c0 1.1-.9 2-2 2s-2-.9-2-2 .9-2 2-2 2 .9 2 2zm-8.04 0c0 1.1-.9 2-2 2s-2-.9-2-2 .9-2 2-2 2 .9 2 2zm-8.03 0c0 1.1-.9 2-2 2s-2-.9-2-2 .9-2 2-2 2 .9 2 2zm-8.03 0c0 1.1-.9 2-2 2s-2-.9-2-2 .9-2 2-2 2 .9 2 2zm-8.03 0c0 1.1-.9 2-2 2s-2-.9-2-2 .9-2 2-2 2 .9 2 2zm-8.03 0c0 1.1-.9 2-2 2s-2-.9-2-2 .9-2 2-2 2 .9 2 2zm-8.02 0c0 1.1-.9 2-2 2s-2-.9-2-2 .9-2 2-2 2 .9 2 2zm-8.03 0c0 1.1-.9 2-2 2-1.12 0-2-.9-2-2s.88-2 2-2c1.1 0 2 .9 2 2zm-8.04 0c0 1.1-.9 2-2 2s-2-.9-2-2 .9-2 2-2 2 .9 2 2zm-8.03 0c0 1.1-.9 2-2 2s-2-.9-2-2 .9-2 2-2 2 .9 2 2zm-8.03 0c0 1.1-.9 2-2 2s-2-.9-2-2 .9-2 2-2 2 .9 2 2zm-5-5c0 1.1-.9 2-2 2s-2-.9-2-2 .9-2 2-2 2 .9 2 2zm0-8c0 1.1-.9 2-2 2s-2-.9-2-2 .9-2 2-2 2 .9 2 2zm0-8c0 1.12-.9 2-2 2s-2-.88-2-2c0-1.1.9-2 2-2s2 .9 2 2zm0-7.98c0 1.1-.9 2-2 2s-2-.9-2-2 .9-2 2-2 2 .9 2 2zm0-8c0 1.1-.9 2-2 2s-2-.9-2-2 .9-2 2-2 2 .9 2 2zm0-8c0 1.12-.9 2-2 2s-2-.88-2-2c0-1.1.9-2 2-2s2 .9 2 2zm0-7.98c0 1.1-.9 2-2 2s-2-.9-2-2 .9-2 2-2 2 .9 2 2zm0-8c0 1.1-.9 2-2 2s-2-.9-2-2 .9-2 2-2 2 .9 2 2zm0-7.98c0 1.1-.9 2-2 2s-2-.9-2-2 .9-2 2-2 2 .9 2 2zm0-8c0 1.1-.9 2-2 2s-2-.9-2-2 .9-2 2-2 2 .9 2 2zm0-8c0 1.1-.9 2-2 2s-2-.9-2-2 .9-2 2-2 2 .9 2 2zm0-7.98c0 1.1-.9 2-2 2s-2-.9-2-2 .9-2 2-2 2 .9 2 2zm0-8c0 1.1-.9 2-2 2s-2-.9-2-2 .9-2 2-2 2 .9 2 2zm0-8c0 1.1-.9 2-2 2s-2-.9-2-2 .9-2 2-2 2 .9 2 2zm0-7.98c0 1.1-.9 2-2 2s-2-.9-2-2 .9-2 2-2 2 .9 2 2zm0-8c0 1.1-.9 2-2 2s-2-.9-2-2 .9-2 2-2 2 .9 2 2zm0-8c0 1.12-.9 2-2 2s-2-.88-2-2c0-1.1.9-2 2-2s2 .9 2 2zm0-7.98c0 1.1-.9 2-2 2s-2-.9-2-2 .9-2 2-2 2 .9 2 2zm0-8c0 1.1-.9 2-2 2s-2-.9-2-2 .9-2 2-2 2 .9 2 2zm0-8c0 1.12-.9 2-2 2s-2-.88-2-2c0-1.1.9-2 2-2s2 .9 2 2zm0-7.98c0 1.1-.9 2-2 2s-2-.9-2-2 .9-2 2-2 2 .9 2 2zm0-8c0 1.1-.9 2-2 2s-2-.9-2-2 .9-2 2-2 2 .9 2 2zm0-8c0 1.12-.9 2-2 2s-2-.88-2-2c0-1.1.9-2 2-2s2 .9 2 2zm0-7.98c0 1.1-.9 2-2 2s-2-.9-2-2 .9-2 2-2 2 .9 2 2zm0-8c0 1.1-.9 2-2 2s-2-.9-2-2 .9-2 2-2 2 .9 2 2zm0-8c0 1.12-.9 2-2 2s-2-.88-2-2c0-1.1.9-2 2-2s2 .9 2 2zm0-7.98c0 1.1-.9 2-2 2s-2-.9-2-2 .9-2 2-2 2 .9 2 2zm0-8c0 1.1-.9 2-2 2s-2-.9-2-2 .9-2 2-2 2 .9 2 2zm0-8c0 1.12-.9 2-2 2s-2-.88-2-2c0-1.1.9-2 2-2s2 .9 2 2zm0-7.98c0 1.1-.9 2-2 2s-2-.9-2-2 .9-2 2-2 2 .9 2 2zm0-8c0 1.1-.9 2-2 2s-2-.9-2-2 .9-2 2-2 2 .9 2 2zm0-7.98c0 1.1-.9 2-2 2s-2-.9-2-2 .9-2 2-2 2 .9 2 2zm0-8c0 1.1-.9 2-2 2s-2-.9-2-2 .9-2 2-2 2 .9 2 2zm0-8c0 1.1-.9 2-2 2s-2-.9-2-2 .9-2 2-2 2 .9 2 2zm0-7.98c0 1.1-.9 2-2 2s-2-.9-2-2 .9-2 2-2 2 .9 2 2zm0-8c0 1.1-.9 2-2 2s-2-.9-2-2 .9-2 2-2 2 .9 2 2zm0-8c0 1.1-.9 2-2 2s-2-.9-2-2 .9-2 2-2 2 .9 2 2zm0-7.98c0 1.1-.9 2-2 2s-2-.9-2-2 .9-2 2-2 2 .9 2 2zm0-8c0 1.1-.9 2-2 2s-2-.9-2-2 .9-2 2-2 2 .9 2 2zm0-8c0 1.12-.9 2-2 2s-2-.88-2-2c0-1.1.9-2 2-2s2 .9 2 2zm0-7.98c0 1.1-.9 2-2 2s-2-.9-2-2 .9-2 2-2 2 .9 2 2zm0-8c0 1.1-.9 2-2 2s-2-.9-2-2 .9-2 2-2 2 .9 2 2zm0-8c0 1.12-.9 2-2 2s-2-.88-2-2c0-1.1.9-2 2-2s2 .9 2 2zm0-7.98c0 1.1-.9 2-2 2s-2-.9-2-2 .9-2 2-2 2 .9 2 2zm0-8c0 1.1-.9 2-2 2s-2-.9-2-2 .9-2 2-2 2 .9 2 2zm0-8c0 1.12-.9 2-2 2s-2-.88-2-2c0-1.1.9-2 2-2s2 .9 2 2zm0-7.98c0 1.1-.9 2-2 2s-2-.9-2-2 .9-2 2-2 2 .9 2 2zm0-8c0 1.1-.9 2-2 2s-2-.9-2-2 .9-2 2-2 2 .9 2 2zm0-8c0 1.12-.9 2-2 2s-2-.88-2-2c0-1.1.9-2 2-2s2 .9 2 2zm0-7.98c0 1.1-.9 2-2 2s-2-.9-2-2 .9-2 2-2 2 .9 2 2zm0-8c0 1.1-.9 2-2 2s-2-.9-2-2 .9-2 2-2 2 .9 2 2zm0-8c0 1.12-.9 2-2 2s-2-.88-2-2c0-1.1.9-2 2-2s2 .9 2 2zm0-7.98c0 1.1-.9 2-2 2s-2-.9-2-2 .9-2 2-2 2 .9 2 2zm0-8c0 1.1-.9 2-2 2s-2-.9-2-2 .9-2 2-2 2 .9 2 2zm0-8c0 1.12-.9 2-2 2s-2-.88-2-2c0-1.1.9-2 2-2s2 .9 2 2zm0-7.98c0 1.1-.9 2-2 2s-2-.9-2-2 .9-2 2-2 2 .9 2 2zm0-8c0 1.1-.9 2-2 2s-2-.9-2-2 .9-2 2-2 2 .9 2 2zm0-7.98c0 1.1-.9 2-2 2s-2-.9-2-2 .9-2 2-2 2 .9 2 2zm0-8c0 1.1-.9 2-2 2s-2-.9-2-2 .9-2 2-2 2 .9 2 2zm0-8c0 1.1-.9 2-2 2s-2-.9-2-2 .9-2 2-2 2 .9 2 2zm0-7.98c0 1.1-.9 2-2 2s-2-.9-2-2 .9-2 2-2 2 .9 2 2zm0-8c0 1.1-.9 2-2 2s-2-.9-2-2 .9-2 2-2 2 .9 2 2zm0-8c0 1.12-.9 2-2 2s-2-.88-2-2c0-1.1.9-2 2-2s2 .9 2 2zm0-7.98c0 1.1-.9 2-2 2s-2-.9-2-2 .9-2 2-2 2 .9 2 2zm0-8c0 1.1-.9 2-2 2s-2-.9-2-2 .9-2 2-2 2 .9 2 2zm0-8c0 1.12-.9 2-2 2s-2-.88-2-2c0-1.1.9-2 2-2s2 .9 2 2zm0-7.98c0 1.1-.9 2-2 2s-2-.9-2-2 .9-2 2-2 2 .9 2 2zm0-8c0 1.1-.9 2-2 2s-2-.9-2-2 .9-2 2-2 2 .9 2 2zm0-8c0 1.12-.9 2-2 2s-2-.88-2-2c0-1.1.9-2 2-2s2 .9 2 2zm0-7.98c0 1.1-.9 2-2 2s-2-.9-2-2 .9-2 2-2 2 .9 2 2zm0-8c0 1.1-.9 2-2 2s-2-.9-2-2 .9-2 2-2 2 .9 2 2zm0-8c0 1.12-.9 2-2 2s-2-.88-2-2c0-1.1.9-2 2-2s2 .9 2 2zm0-7.98c0 1.1-.9 2-2 2s-2-.9-2-2 .9-2 2-2 2 .9 2 2zm0-8c0 1.1-.9 2-2 2s-2-.9-2-2 .9-2 2-2 2 .9 2 2zm0-8c0 1.12-.9 2-2 2s-2-.88-2-2c0-1.1.9-2 2-2s2 .9 2 2zm0-7.98c0 1.1-.9 2-2 2s-2-.9-2-2 .9-2 2-2 2 .9 2 2zm0-8c0 1.1-.9 2-2 2s-2-.9-2-2 .9-2 2-2 2 .9 2 2zm0-8c0 1.12-.9 2-2 2s-2-.88-2-2c0-1.1.9-2 2-2s2 .9 2 2zm0-7.98c0 1.1-.9 2-2 2s-2-.9-2-2 .9-2 2-2 2 .9 2 2zm0-8c0 1.1-.9 2-2 2s-2-.9-2-2 .9-2 2-2 2 .9 2 2zm0-7.98c0 1.1-.9 2-2 2s-2-.9-2-2 .9-2 2-2 2 .9 2 2zm0-8c0 1.1-.9 2-2 2s-2-.9-2-2 .9-2 2-2 2 .9 2 2zm0-8c0 1.1-.9 2-2 2s-2-.9-2-2 .9-2 2-2 2 .9 2 2zm0-7.98c0 1.1-.9 2-2 2s-2-.9-2-2 .9-2 2-2 2 .9 2 2zm0-8c0 1.1-.9 2-2 2s-2-.9-2-2 .9-2 2-2 2 .9 2 2zm0-8c0 1.1-.9 2-2 2s-2-.9-2-2 .9-2 2-2 2 .9 2 2zm0-7.98c0 1.1-.9 2-2 2s-2-.9-2-2 .9-2 2-2 2 .9 2 2zm0-8c0 1.1-.9 2-2 2s-2-.9-2-2 .9-2 2-2 2 .9 2 2zm0-8c0 1.12-.9 2-2 2s-2-.88-2-2c0-1.1.9-2 2-2s2 .9 2 2zm0-7.98c0 1.1-.9 2-2 2s-2-.9-2-2 .9-2 2-2 2 .9 2 2zm0-8c0 1.1-.9 2-2 2s-2-.9-2-2 .9-2 2-2 2 .9 2 2zm0-8c0 1.12-.9 2-2 2s-2-.88-2-2c0-1.1.9-2 2-2s2 .9 2 2zm0-7.98c0 1.1-.9 2-2 2s-2-.9-2-2 .9-2 2-2 2 .9 2 2zm0-8c0 1.1-.9 2-2 2s-2-.9-2-2 .9-2 2-2 2 .9 2 2zm0-8c0 1.12-.9 2-2 2s-2-.88-2-2c0-1.1.9-2 2-2s2 .9 2 2zm0-7.98c0 1.1-.9 2-2 2s-2-.9-2-2 .9-2 2-2 2 .9 2 2zm0-8c0 1.1-.9 2-2 2s-2-.9-2-2 .9-2 2-2 2 .9 2 2zm0-8c0 1.12-.9 2-2 2s-2-.88-2-2c0-1.1.9-2 2-2s2 .9 2 2zm0-7.98c0 1.1-.9 2-2 2s-2-.9-2-2 .9-2 2-2 2 .9 2 2zm0-8c0 1.1-.9 2-2 2s-2-.9-2-2 .9-2 2-2 2 .9 2 2zm0-8c0 1.12-.9 2-2 2s-2-.88-2-2c0-1.1.9-2 2-2s2 .9 2 2zm0-7.98c0 1.1-.9 2-2 2s-2-.9-2-2 .9-2 2-2 2 .9 2 2zm0-8c0 1.1-.9 2-2 2s-2-.9-2-2 .9-2 2-2 2 .9 2 2zm0-7.98c0 1.1-.9 2-2 2s-2-.9-2-2 .9-2 2-2 2 .9 2 2zm0-8c0 1.1-.9 2-2 2s-2-.9-2-2 .9-2 2-2 2 .9 2 2zm0-8c0 1.1-.9 2-2 2s-2-.9-2-2 .9-2 2-2 2 .9 2 2zm0-7.98c0 1.1-.9 2-2 2s-2-.9-2-2 .9-2 2-2 2 .9 2 2zm0-8c0 1.1-.9 2-2 2s-2-.9-2-2 .9-2 2-2 2 .9 2 2zm0-8c0 1.1-.9 2-2 2s-2-.9-2-2 .9-2 2-2 2 .9 2 2zm0-7.98c0 1.1-.9 2-2 2s-2-.9-2-2 .9-2 2-2 2 .9 2 2zm0-8c0 1.1-.9 2-2 2s-2-.9-2-2 .9-2 2-2 2 .9 2 2zm0-8c0 1.12-.9 2-2 2s-2-.88-2-2c0-1.1.9-2 2-2s2 .9 2 2zm0-7.98c0 1.1-.9 2-2 2s-2-.9-2-2 .9-2 2-2 2 .9 2 2zm0-8c0 1.1-.9 2-2 2s-2-.9-2-2 .9-2 2-2 2 .9 2 2zm0-8c0 1.12-.9 2-2 2s-2-.88-2-2c0-1.1.9-2 2-2s2 .9 2 2zm0-7.98c0 1.1-.9 2-2 2s-2-.9-2-2 .9-2 2-2 2 .9 2 2zm0-8c0 1.1-.9 2-2 2s-2-.9-2-2 .9-2 2-2 2 .9 2 2zm0-8c0 1.12-.9 2-2 2s-2-.88-2-2c0-1.1.9-2 2-2s2 .9 2 2zm0-7.98c0 1.1-.9 2-2 2s-2-.9-2-2 .9-2 2-2 2 .9 2 2zm0-8c0 1.1-.9 2-2 2s-2-.9-2-2 .9-2 2-2 2 .9 2 2zm0-8c0 1.12-.9 2-2 2s-2-.88-2-2c0-1.1.9-2 2-2s2 .9 2 2zm0-7.98c0 1.1-.9 2-2 2s-2-.9-2-2 .9-2 2-2 2 .9 2 2zm0-8c0 1.1-.9 2-2 2s-2-.9-2-2 .9-2 2-2 2 .9 2 2zm0-8c0 1.12-.9 2-2 2s-2-.88-2-2c0-1.1.9-2 2-2s2 .9 2 2zm0-7.98c0 1.1-.9 2-2 2s-2-.9-2-2 .9-2 2-2 2 .9 2 2zm0-8c0 1.1-.9 2-2 2s-2-.9-2-2 .9-2 2-2 2 .9 2 2zm0-7.98c0 1.1-.9 2-2 2s-2-.9-2-2 .9-2 2-2 2 .9 2 2zm0-8c0 1.1-.9 2-2 2s-2-.9-2-2 .9-2 2-2 2 .9 2 2zm0-8c0 1.1-.9 2-2 2s-2-.9-2-2 .9-2 2-2 2 .9 2 2zm0-7.98c0 1.1-.9 2-2 2s-2-.9-2-2 .9-2 2-2 2 .9 2 2zm0-8c0 1.1-.9 2-2 2s-2-.9-2-2 .9-2 2-2 2 .9 2 2zm0-8c0 1.1-.9 2-2 2s-2-.9-2-2 .9-2 2-2 2 .9 2 2zm0-7.98c0 1.1-.9 2-2 2s-2-.9-2-2 .9-2 2-2 2 .9 2 2zm0-8c0 1.1-.9 2-2 2s-2-.9-2-2 .9-2 2-2 2 .9 2 2zm0-8c0 1.12-.9 2-2 2s-2-.88-2-2c0-1.1.9-2 2-2s2 .9 2 2zm0-7.98c0 1.1-.9 2-2 2s-2-.9-2-2 .9-2 2-2 2 .9 2 2zm0-8c0 1.1-.9 2-2 2s-2-.9-2-2 .9-2 2-2 2 .9 2 2zm0-8c0 1.12-.9 2-2 2s-2-.88-2-2c0-1.1.9-2 2-2s2 .9 2 2zm0-7.98c0 1.1-.9 2-2 2s-2-.9-2-2 .9-2 2-2 2 .9 2 2zm0-8c0 1.1-.9 2-2 2s-2-.9-2-2 .9-2 2-2 2 .9 2 2zm0-8c0 1.12-.9 2-2 2s-2-.88-2-2c0-1.1.9-2 2-2s2 .9 2 2zM82 88c0 1.1-.9 2-2 2s-2-.9-2-2 .9-2 2-2 2 .9 2 2zm0-8c0 1.1-.9 2-2 2s-2-.9-2-2 .9-2 2-2 2 .9 2 2zm0-8c0 1.12-.9 2-2 2s-2-.88-2-2c0-1.1.9-2 2-2s2 .9 2 2zM82 64c0 1.1-.9 2-2 2s-2-.9-2-2 .9-2 2-2 2 .9 2 2zm5-5c0 1.1-.9 2-2 2s-2-.9-2-2 .9-2 2-2 2 .9 2 2zm7.94 0c0 1.1-.9 2-2 2s-2-.9-2-2 .9-2 2-2 2 .9 2 2zm7.94 0c0 1.1-.9 2-2 2s-2-.9-2-2 .9-2 2-2 2 .9 2 2zm7.94 0c0 1.1-.9 2-2 2s-2-.9-2-2 .9-2 2-2 2 .9 2 2zm7.94 0c0 1.1-.9 2-2 2s-2-.9-2-2 .9-2 2-2 2 .9 2 2zm7.95 0c0 1.1-.9 2-2 2s-2-.9-2-2 .9-2 2-2 2 .9 2 2zm7.95 0c0 1.1-.9 2-2 2s-2-.9-2-2 .9-2 2-2 2 .9 2 2zm7.94 0c0 1.1-.9 2-2 2-1.12 0-2-.9-2-2s.88-2 2-2c1.1 0 2 .9 2 2zm7.93 0c0 1.1-.9 2-2 2s-2-.9-2-2 .9-2 2-2 2 .9 2 2zm7.94 0c0 1.1-.9 2-2 2s-2-.9-2-2 .9-2 2-2 2 .9 2 2zm7.94 0c0 1.1-.88 2-2 2-1.1 0-2-.9-2-2s.9-2 2-2c1.12 0 2 .9 2 2zm7.95 0c0 1.1-.9 2-2 2s-2-.9-2-2 .9-2 2-2 2 .9 2 2zm7.94 0c0 1.1-.9 2-2 2s-2-.9-2-2 .9-2 2-2 2 .9 2 2zm7.94 0c0 1.1-.9 2-2 2s-2-.9-2-2 .9-2 2-2 2 .9 2 2zm7.94 0c0 1.1-.9 2-2 2s-2-.9-2-2 .9-2 2-2 2 .9 2 2zm7.94 0c0 1.1-.9 2-2 2s-2-.9-2-2 .9-2 2-2 2 .9 2 2zm7.94 0c0 1.1-.9 2-2 2s-2-.9-2-2 .9-2 2-2 2 .9 2 2zm7.94 0c0 1.1-.9 2-2 2s-2-.9-2-2 .9-2 2-2 2 .9 2 2zm7.94 0c0 1.1-.9 2-2 2s-2-.9-2-2 .9-2 2-2 2 .9 2 2zm7.94 0c0 1.1-.9 2-2 2s-2-.9-2-2 .9-2 2-2 2 .9 2 2zm7.94 0c0 1.1-.9 2-2 2s-2-.9-2-2 .9-2 2-2 2 .9 2 2zm7.94 0c0 1.1-.9 2-2 2s-2-.9-2-2 .9-2 2-2 2 .9 2 2zm7.95 0c0 1.1-.9 2-2 2s-2-.9-2-2 .9-2 2-2 2 .9 2 2zm7.95 0c0 1.1-.9 2-2 2s-2-.9-2-2 .9-2 2-2 2 .9 2 2zm7.94 0c0 1.1-.9 2-2 2-1.12 0-2-.9-2-2s.88-2 2-2c1.1 0 2 .9 2 2zm7.93 0c0 1.1-.9 2-2 2s-2-.9-2-2 .9-2 2-2 2 .9 2 2zm7.94 0c0 1.1-.9 2-2 2s-2-.9-2-2 .9-2 2-2 2 .9 2 2zm7.94 0c0 1.1-.88 2-2 2-1.1 0-2-.9-2-2s.9-2 2-2c1.12 0 2 .9 2 2zm7.95 0c0 1.1-.9 2-2 2s-2-.9-2-2 .9-2 2-2 2 .9 2 2zm7.94 0c0 1.1-.9 2-2 2s-2-.9-2-2 .9-2 2-2 2 .9 2 2zm7.94 0c0 1.1-.9 2-2 2s-2-.9-2-2 .9-2 2-2 2 .9 2 2zm7.94 0c0 1.1-.9 2-2 2s-2-.9-2-2 .9-2 2-2 2 .9 2 2zm7.94 0c0 1.1-.9 2-2 2s-2-.9-2-2 .9-2 2-2 2 .9 2 2zm7.94 0c0 1.1-.9 2-2 2s-2-.9-2-2 .9-2 2-2 2 .9 2 2zm7.94 0c0 1.1-.9 2-2 2s-2-.9-2-2 .9-2 2-2 2 .9 2 2zm7.94 0c0 1.1-.9 2-2 2s-2-.9-2-2 .9-2 2-2 2 .9 2 2zm7.94 0c0 1.1-.9 2-2 2s-2-.9-2-2 .9-2 2-2 2 .9 2 2zm7.94 0c0 1.1-.9 2-2 2s-2-.9-2-2 .9-2 2-2 2 .9 2 2zm7.94 0c0 1.1-.9 2-2 2s-2-.9-2-2 .9-2 2-2 2 .9 2 2zm7.95 0c0 1.1-.9 2-2 2s-2-.9-2-2 .9-2 2-2 2 .9 2 2zm7.95 0c0 1.1-.9 2-2 2s-2-.9-2-2 .9-2 2-2 2 .9 2 2zm7.94 0c0 1.1-.9 2-2 2-1.12 0-2-.9-2-2s.88-2 2-2c1.1 0 2 .9 2 2zm7.93 0c0 1.1-.9 2-2 2s-2-.9-2-2 .9-2 2-2 2 .9 2 2zm7.94 0c0 1.1-.9 2-2 2s-2-.9-2-2 .9-2 2-2 2 .9 2 2zm7.94 0c0 1.1-.88 2-2 2-1.1 0-2-.9-2-2s.9-2 2-2c1.12 0 2 .9 2 2zm7.95 0c0 1.1-.9 2-2 2s-2-.9-2-2 .9-2 2-2 2 .9 2 2zm7.94 0c0 1.1-.9 2-2 2s-2-.9-2-2 .9-2 2-2 2 .9 2 2zm7.94 0c0 1.1-.9 2-2 2s-2-.9-2-2 .9-2 2-2 2 .9 2 2zm7.94 0c0 1.1-.9 2-2 2s-2-.9-2-2 .9-2 2-2 2 .9 2 2zm7.94 0c0 1.1-.9 2-2 2s-2-.9-2-2 .9-2 2-2 2 .9 2 2zm7.94 0c0 1.1-.9 2-2 2s-2-.9-2-2 .9-2 2-2 2 .9 2 2zm7.94 0c0 1.1-.9 2-2 2s-2-.9-2-2 .9-2 2-2 2 .9 2 2zm7.94 0c0 1.1-.9 2-2 2s-2-.9-2-2 .9-2 2-2 2 .9 2 2zm7.94 0c0 1.1-.9 2-2 2s-2-.9-2-2 .9-2 2-2 2 .9 2 2zm7.94 0c0 1.1-.9 2-2 2s-2-.9-2-2 .9-2 2-2 2 .9 2 2zm7.94 0c0 1.1-.9 2-2 2s-2-.9-2-2 .9-2 2-2 2 .9 2 2zm7.95 0c0 1.1-.9 2-2 2s-2-.9-2-2 .9-2 2-2 2 .9 2 2zm7.95 0c0 1.1-.9 2-2 2s-2-.9-2-2 .9-2 2-2 2 .9 2 2zm7.94 0c0 1.1-.9 2-2 2-1.12 0-2-.9-2-2s.88-2 2-2c1.1 0 2 .9 2 2zm7.93 0c0 1.1-.9 2-2 2s-2-.9-2-2 .9-2 2-2 2 .9 2 2zm7.94 0c0 1.1-.9 2-2 2s-2-.9-2-2 .9-2 2-2 2 .9 2 2zm7.94 0c0 1.1-.88 2-2 2-1.1 0-2-.9-2-2s.9-2 2-2c1.12 0 2 .9 2 2zm7.95 0c0 1.1-.9 2-2 2s-2-.9-2-2 .9-2 2-2 2 .9 2 2zm7.94 0c0 1.1-.9 2-2 2s-2-.9-2-2 .9-2 2-2 2 .9 2 2zm7.94 0c0 1.1-.9 2-2 2s-2-.9-2-2 .9-2 2-2 2 .9 2 2zm7.94 0c0 1.1-.9 2-2 2s-2-.9-2-2 .9-2 2-2 2 .9 2 2zm7.94 0c0 1.1-.9 2-2 2s-2-.9-2-2 .9-2 2-2 2 .9 2 2zm7.94 0c0 1.1-.9 2-2 2s-2-.9-2-2 .9-2 2-2 2 .9 2 2zm7.94 0c0 1.1-.9 2-2 2s-2-.9-2-2 .9-2 2-2 2 .9 2 2zm5 5c0 1.1-.9 2-2 2s-2-.9-2-2 .9-2 2-2 2 .9 2 2zm0 7.3c0 1.1-.9 2-2 2s-2-.9-2-2 .9-2 2-2 2 .9 2 2zm0 7.3c0 1.12-.9 2-2 2s-2-.88-2-2c0-1.1.9-2 2-2s2 .9 2 2zm0 7.32c0 1.1-.9 2-2 2s-2-.9-2-2 .9-2 2-2 2 .9 2 2zm0 7.3c0 1.1-.9 2-2 2s-2-.9-2-2 .9-2 2-2 2 .9 2 2zm0 7.3c0 1.1-.9 2-2 2s-2-.9-2-2 .9-2 2-2 2 .9 2 2z" fill="#834187"/><path d="M640 1220l.07 2H639v-4h1.12zM630 115.53l-4.64-14.27h9.28z" fill="#834187"/><path d="M630 122l-7.4-22.74h14.8zm-1.88-18.74l1.88 5.8 1.88-5.8z" fill="#834187"/><path d="M873.15 593.16c-.3 0-.3 0-.6-.36l-43.06-24.96c-.3-.24-.6-.6-.6-1.2 0-.48.3-.84.6-1.08l42.77-24.72c.3-.24.88-.24 1.17 0l43.07 24.96c.3.36.6.6.6 1.2s-.3.84-.6 1.2l-42.77 24.6c-.3.36-.3.36-.58.36M867 653.52c-.28 0-.57 0-.57-.24l-43.07-24.96c-.3-.36-.58-.6-.58-1.2v-49.8c0-.6.3-.96.58-1.2.3-.36.88-.36 1.17 0l43.07 24.96c.3.24.58.48.58 1.08v49.92c0 .6-.3.84-.58 1.2-.3.24-.6.24-.6.24M879 653.52c-.3 0-.6 0-.6-.24-.3-.36-.58-.6-.58-1.2v-49.56c0-.6.3-.96.58-1.2l43.07-24.96c.3-.24.88-.24 1.17 0 .3.36.58.6.58 1.2v49.56c0 .6-.3.84-.58 1.2l-43.07 24.96c0 .24-.3.24-.58.24" stroke="#000" stroke-opacity="0" fill="#0078d7"/><path d="M827.74 659.16c-.58 0-1.46-.36-2.04-.6l-19.86-11.76c-3.5-2.04-5.84-6.12-5.84-9.96v-73.92c0-3.84 2.34-8.28 5.84-9.96l19.86-11.76c2.04-1.2 4.67-.6 5.84 1.44 1.16 2.04.58 4.68-1.46 5.88l-19.86 11.76c-.58.24-1.46 1.68-1.46 2.64v73.92c0 .84.88 2.28 1.46 2.64l19.86 11.76c2.04 1.08 2.62 3.72 1.46 5.88-.88 1.08-2.34 2.04-3.8 2.04zM918.26 540.84c.58 0 1.46.36 2.04.6l19.86 11.76c3.5 2.04 5.84 6.12 5.84 9.96v73.92c0 3.84-2.34 8.28-5.84 9.96L920.3 658.8c-2.04 1.2-4.67.6-5.84-1.44-1.16-2.04-.58-4.68 1.46-5.88l19.86-11.76c.58-.24 1.46-1.68 1.46-2.64v-73.92c0-.84-.88-2.28-1.46-2.64l-19.86-11.76c-2.04-1.08-2.62-3.72-1.46-5.88.88-1.44 2.34-2.04 3.8-2.04z" stroke="#000" stroke-opacity="0" fill="#0078d7"/><path d="M316.8 203.8h-81.96c-1.43 0-2.98 1.2-2.98 2.88v52.08c0 1.44 1.2 3.72 2.98 3.72h34.96V268c0 1.8-2.63 5.04-4.66 5.04h-5.84c-6.45 0-11.1 1.68-11.1 5.28 0 1.68-.24 1.68 6.1 1.68h3.2c5.02 0 5.85-2.88 10.86-2.88h12.53c4.88 0 8.7 2.88 11.92 2.88h3.22c6.45 0 6.45-.24 6.45-1.68 0-3.24-5.02-5.28-11.35-5.28h-5.96c-1.68 0-4.07-3.24-4.07-5.04v-5.52h35.08c1.44 0 2.87-2.04 2.87-3.72v-52.08c.72-1.44-.48-2.88-2.27-2.88zm-5.72 49.68h-70.16v-40.92h70.16v40.92z" stroke="#000" stroke-opacity="0" fill="#00188f"/><path d="M226.25 250.24v-43.56c0-4.68 3.82-8.76 8.83-8.76h23.26v-32.04c0-3.24-2.62-5.88-5.84-5.88h-46.65c-3.23 0-5.85 2.64-5.85 5.88v113.88h42.95v-2.04c0-2.04.6-7.32 8.1-9.96h-41.99v-5.88h18.5c-.73-1.2-.96-2.64-.96-3.72v-2.04h-17.53v-5.88h17.18zm-17.42-75.6h40.8v8.64h-40.8v-8.64z" stroke="#000" stroke-opacity="0" fill="#00188f"/><path d="M1098.94 855.07h54.26c6.8 0 6.8 0 6.8 6.5v51.93c0 6.5 0 6.5-6.8 6.5h-54.26c-6.8 0-6.8 0-6.8-6.5v-51.94c0-6.5 0-6.5 6.8-6.5zM1101 805.36h-54.22c-3.73 0-6.78 2.92-6.78 6.5v51.9c0 3.57 3.05 6.5 6.78 6.5h12.54V836.7c0-7.13 6.03-12.97 13.56-12.97h34.9v-11.88c0-3.57-3.04-6.5-6.77-6.5z" fill="#9d5025"/><path d="M1127.1 830.22h-54.25c-3.72 0-6.77 2.92-6.77 6.48v51.9c0 3.58 3.05 6.5 6.77 6.5h12.55v-33.55c0-7.13 6.1-12.97 13.55-12.97h34.9V836.7c0-3.56-3.04-6.48-6.76-6.48z" fill="#9d5025"/><path d="M1098.94 849.7h54.26c6.8 0 6.8 0 6.8 6.5v51.93c0 6.5 0 6.5-6.8 6.5h-54.26c-6.8 0-6.8 0-6.8-6.5V856.2c0-6.5 0-6.5 6.8-6.5zM1101 800h-54.22c-3.73 0-6.78 2.92-6.78 6.5v51.9c0 3.56 3.05 6.48 6.78 6.48h12.54v-33.54c0-7.14 6.03-12.98 13.56-12.98h34.9V806.5c0-3.58-3.04-6.5-6.77-6.5z" fill="#f58536"/><path d="M1127.1 824.85h-54.25c-3.72 0-6.77 2.92-6.77 6.5v51.9c0 3.57 3.05 6.5 6.77 6.5h12.55v-33.56c0-7.15 6.1-13 13.55-13h34.9v-11.86c0-3.57-3.04-6.5-6.76-6.5z" fill="#f58536"/><use xlink:href="#e" transform="matrix(1,0,0,1,1040,920) translate(-12.444444444444457 21.333333333333336)"/><path d="M1272.06 343.56l11.28-2.24 13.4 12.94-13.4 10.2-11.28-.53v-20.37z" fill="#8c3123"/><path d="M1321 370.6l25.03 31.44L1360 370.5l-23.4-1.43-15.6 1.52zM1299 370.6l-25.04 31.44L1260 370.5l23.4-1.43 15.6 1.52z" fill="#f2b0a9"/><path d="M1360 370.5l-13.95 2.05v29.5l13.94-6.95v-24.6zM1300.92 343.63l-17.58-2.3v23.13l17.58-.53v-20.3z" fill="#e05243"/><path d="M1318.9 343.63l17.58-2.34 9.56 12.42-9.56 10.76-17.6-.54v-20.3z" fill="#8c3123"/><path d="M1347.75 343.54l-11.27-2.25v23.18l11.27-.54v-20.4z" fill="#e05243"/><path d="M1291.95 339.6L1310 336l13.23 16.87-13.23 12.9-18.05-.87v-25.3z" fill="#8c3123"/><path d="M1324.8 328.44l-14.9 3.48-14.9-3.48 15-28.44 14.8 28.44z" fill="#5e1f18"/><path d="M1321 370.57l25.04 1.98v29.47L1321 395.3v-24.73zM1260 370.5l13.94 2.05v29.5L1260 395.1v-24.6z" fill="#8c3123"/><path d="M1299 370.57l-25.06 1.98v29.47l25.05-6.73v-24.73z" fill="#e05243"/><path d="M1336.47 374L1310 371.5l-26.5 2.53 26.5 46 26.47-46z" fill="#f2b0a9"/><path d="M1336.48 373.98l-26.48 3.96V420l26.48-13.22v-32.8z" fill="#e05243"/><path d="M1283.5 373.98l26.5 3.96V420l-26.5-13.22v-32.8z" fill="#8c3123"/><path d="M1327.86 339.57L1310 336v29.76l17.86-.86v-25.33zM1324.82 307.43L1310 300v24l14.82 4.45v-21.02z" fill="#e05243"/><path d="M1295 307.43l15-7.43v24l-15 4.45v-21.02z" fill="#8c3123"/><use xlink:href="#f" transform="matrix(1,0,0,1,1260,420) translate(-4.172839506172842 28.444444444444446)"/><path d="M270 629.1l-10.8-2.1-19.2 1.84 9.48 35L270 629.1z" fill="#b7ca9d"/><path d="M240 589v31.73l9.7 1.64 18.97-16.44-18.98-18.3L240 589z" fill="#4b612c"/><path d="M249.7 631.16l20.3-2.07v31.72l-20.3 1.64-7.72-16.7 7.73-14.6z" fill="#759c3e"/><path d="M259.4 582.98l10.6-1.87-20.28-35.42L240 581.1l19.4 1.88z" fill="#3c4929"/><path d="M249.7 544.28l20.3 4.86v31.98l-20.3-2.32v-34.52zM249.7 587.6l20.3 1.65v31.73l-20.3 1.4V587.6z" fill="#759c3e"/><path d="M270 571.62l15.44-3.94-21.2-30.34-14.54 31.26 20.3 3.02z" fill="#3c4929"/><path d="M264.25 536.64l21.17 6.24v24.8l-21.17-3.7v-27.34z" fill="#759c3e"/><path d="M285.44 642.07l-15.44-3.7-20.3 3 14.55 31.97 21.2-31.27z" fill="#b7ca9d"/><path d="M264.24 646l21.2-3.93v25.02l-21.2 6.24-19.17-15.5L264.24 646z" fill="#759c3e"/><path d="M389.76 581.13l-19.4 1.85-25.8-4.64 20.92-41.7 24.28 44.5z" fill="#3c4929"/><path d="M249.7 641.36v-10.18l-9.7-2.32v31.76l24.25 12.72V646l-14.55-4.64z" fill="#4b612c"/><path d="M389.76 628.87l-19.4-1.87-26.04 4.66 21.18 40.98 24.26-43.77z" fill="#b7ca9d"/><path d="M365.5 536.64l-20.95 6.25v35.44l20.94-2.8 22.94-14.34-22.95-24.56zM365.5 585.3l-20.95 1.84v35.46l20.94 1.84 22.94-18.75-22.95-20.4zM365.48 634.4l-20.93-2.53v35.45l20.93 6.25 21.2-25.48-21.2-13.7z" fill="#4b612c"/><path d="M292.7 526.2l-21.17 35.46 21.6 4.16 21.86-5.35-22.3-34.26z" fill="#3c4929"/><path d="M358.22 573.95l-21.62 3-43.9-7.67L315 510.23l43.24 63.72z" fill="#3c4929"/><path d="M314.97 632.1l41.7-27.1-41.7-27.1-22.26 3.24v47.48l22.27 3.47z" fill="#4b612c"/><path d="M315 577.9v54.2l43.23-6.5v-41.2L315 577.9z" fill="#759c3e"/><path d="M358.22 636.04l-21.62-3-43.9 7.62L315 699.98l43.24-63.94z" fill="#b7ca9d"/><path d="M314.76 649.26l-21.62-5.35-21.6 4.4L291.8 687l22.96-37.74z" fill="#b7ca9d"/><path d="M271.53 648.1v28.93l43.44 22.95 40.6-42.16-40.6-12.04-22.26-5.1v14.12l-21.17-6.7zM264.25 564v-27.36L240 549.36v31.76l9.7-2.32v-10.18l14.56-4.63zM292.7 555.2v14.1l22.27-5.1 39.93-12.04L314.97 510l-43.44 22.95v28.94l21.18-6.7z" fill="#4b612c"/><path d="M315 510v54.22l43.23 9.7V532.7L315 510zM390 581.12v-31.76l-24.5-12.72v38.92l24.5 5.56zM390 620.74V589l-24.5-3.48v38.92l24.5-3.7zM315 645.76v54.22l43.23-22.7v-41.23l-43.23 9.7zM390 660.62v-31.76l-24.5 5.56v38.92l24.5-12.72z" fill="#759c3e"/><use xlink:href="#g" transform="matrix(1,0,0,1,240,700) translate(-93.44444444444443 64)"/><path d="M991.14 352.56l17.87 2.15 16.5-13.43-16.5-16.03-17.86 2.18v25.14zM1040.52 303.3l10.14-2.56 7.46 31.4-7.46 41.44-10.14-1.46V303.3z" fill="#692f56"/><path d="M1050.66 370.68l8.33 4.47V304.9l-8.34-4.16v69.94z" fill="#ad688b"/><path d="M1040.52 362.1l10.14 1.48-41.67 36.4-11.15-27.3 42.67-10.58z" fill="#cfb2c1"/><path d="M977.47 376.68l-10.14 2.57-5.76-71.5 15.9 2.5v66.43z" fill="#ad688b"/><path d="M977.47 317.88l-10.14-1.47L1009 280l11.14 27.3-42.67 10.58z" fill="#512843"/><path d="M1020.14 372.65l-27-6.67-10.76 2.04 26.66 30.83 11.1-26.2z" fill="#cfb2c1"/><path d="M997.85 307.3l11.1-27.28 26.66 31.94-10.75 2.04-27-6.7z" fill="#512843"/><path d="M1026.85 352.56L1009 354.7v-29.46l17.85 2.18v25.14zM1059 375.15L1009 400v-24l44.4-13.25 3.05.9 2.55 11.5z" fill="#ad688b"/><path d="M982.38 368.03l26.6 7.95v23.97l-26.6-13.2v-18.72z" fill="#692f56"/><path d="M1035.6 311.94L1009 304v-23.98l26.6 13.22v18.7z" fill="#ad688b"/><path d="M959 304.85l50-24.85v24l-50 14.9v-14.05z" fill="#692f56"/><path d="M967.33 310.2l-8.33-5.36v70.24l8.33 4.17V310.2z" fill="#692f56"/><use xlink:href="#h" transform="matrix(1,0,0,1,959,400) translate(-33.5679012345679 24.888888888888893)"/><path d="M800 669c0-2.76 2.24-5 5-5h150c2.76 0 5 2.24 5 5v46c0 2.76-2.24 5-5 5H805c-2.76 0-5-2.24-5-5z" stroke="#000" stroke-opacity="0" stroke-width="2" fill-opacity="0"/><use xlink:href="#i" transform="matrix(1,0,0,1,820,664) translate(2.3888888888888857 36)"/><path d="M525.92 280h-75.6c-8.78 0-16.08 7.32-16.08 16.08v87.84c0 8.76 7.3 16.08 16.1 16.08h83.57c8.8 0 16.1-7.32 16.1-16.08v-80.16L525.92 280zm14.12 103.8c0 3.48-2.66 6.12-6.13 6.12h-83.57c-3.47 0-6.13-2.64-6.13-6.12v-88.08c0-3.48 2.66-6.12 6.13-6.12h70.5v19.56h19.2v74.64z" stroke="#000" stroke-opacity="0" fill="#2a3282"/><path d="M473.72 352l-15.28-8.76 15.28-9.6v-8.04l-21.77 14.88v5.4l21.77 14.16V352zM501.73 314.44h-6.95l-16.1 55.68h6.5l16.55-55.68zM522.8 342.88l-15.75 8.76v8.04l21.88-14.16v-5.4l-21.88-14.88v8.04l15.75 9.6z" stroke="#000" stroke-opacity="0" fill="#2a3282"/><path d="M492 280l.1-4.55.27-4.23.4-4 .57-3.76.7-3.62.8-3.5.96-3.38 1.08-3.34 1.23-3.3 1.4-3.33 1.6-3.37 1.8-3.47 2.1-3.64 2.5-3.9 3.03-4.38 3.95-5.2 6-7.23L550.14 178l4.63-6.1" stroke="#0c7cba" stroke-width="2" fill="none"/><path d="M492.03 280H491v-.08z" fill="#0c7cba"/><path d="M563.08 159.4l-4.06 14.46-7.72-5.15z" stroke="#0c7cba" stroke-width="2" fill="#0c7cba"/><path d="M644.46 887.74l4.95 4.8 5.68-5.4c-.45-2.6.54-5.4 2.6-7.43 2-1.93 5.05-2.95 7.66-2.6L690 853.25 676.14 840l-24.48 23.9c.27 2.63-.54 5.42-2.6 7.36-2 2.03-5.05 2.87-7.66 2.62l-5.76 5.5 4.95 4.72-24.3 23.5-1-.77-4.6 3.63-7.82 12 2.07 2.03 12.42-7.62 3.78-4.64-.8-.85 24.1-23.66zm14.04-2.2c-.27.76-.27 1.6-.27 2.36l.27 1.02-.8.6L652 895l-1.98 1.95-5.04-4.82-2.6 2.62 27.53 26.7c1.8 1.77 3.96 2.62 6.4 2.62 2.42 0 4.58-.76 6.38-2.62 3.7-3.38 3.7-9.04 0-12.42l-24.2-23.5zm-33.3-7.18l8.2 8.02 2.6-2.6-3.42-3.48-1.62-1.35 8.64-8.28 1 .25h.8c.63 0 1 0 1.62-.25l-5.04-4.82-.36-.17c1.8-6.25.18-13.26-4.86-18.08-5.04-4.8-12.24-6.42-18.63-4.8l10.8 10.46-2.8 10.48-10.6 2.62-10.8-10.73c-1.8 6.25 0 13.1 4.94 18.08 5.22 5.25 12.87 6.6 19.53 4.66z" stroke="#000" stroke-opacity="0" fill="#2a3282"/><path d="M880 720v35c0 2.76 2.24 5 5 5h210c2.76 0 5 2.24 5 5v16.76" stroke="#0c7cba" stroke-width="2" fill="none"/><path fill="#0c7cba"/><path d="M1100 796.76l-4.64-14.26h9.28z" fill="#0c7cba"/><path d="M1100 800l-6-18.5h12zm-3.26-16.5l3.26 10.03 3.26-10.03z" fill="#0c7cba"/><path d="M1248 1000c17.67 0 32 18.8 32 42s-14.33 42-32 42h-96c-17.67 0-32-18.8-32-42s14.33-42 32-42z" stroke="#0c7cba" stroke-width="2" fill="#0c7cba"/><use xlink:href="#j" transform="matrix(1,0,0,1,1136,1000) translate(23.370370370370367 47.333333333333336)"/><path d="M1160 870h156c2.76 0 5 2.24 5 5v162c0 2.76-2.24 5-5 5h-16.76" stroke="#ef8d22" stroke-width="2" fill="none"/><path fill="#ef8d22"/><path d="M1298.5 1046.64l-14.26-4.64 14.26-4.64z" fill="#ef8d22"/><path d="M1299.5 1048l-18.5-6 18.5-6zm-12.03-6l10.03 3.26v-6.52z" fill="#ef8d22"/><path d="M880 720v58.58c0 2.76-2.24 5-5 5H688.63c-2.76 0-5 2.24-5 5v40.35" stroke="#0c7cba" stroke-width="2" fill="none"/><path fill="#0c7cba"/><path d="M683.63 843.93L679 829.66h9.26z" fill="#0c7cba"/><path d="M683.63 847.17l-6-18.5h12zm-3.26-16.5l3.26 10.02 3.26-10.04z" fill="#0c7cba"/><path d="M390 615l103.7-47.8 39.92-16.17 28.7-10.23 23.58-7.3 20.73-5.48 19.05-4.18 18.07-3.18 17.6-2.34 17.52-1.6 17.8-.85 18.47-.1 19.52.68 21.08 1.64 23.32 2.8 26.5 4.32 31.17 6.43 15.44 3.85" stroke="#7ab648" stroke-width="4" fill="none"/><path d="M390.83 616.8l-.84.4V615zM866.72 539.14l-14.96 1.04 2.24-9z" fill="#7ab648"/><path d="M873 540.7l-.15-.04-.23.07-23.47 1.64 3.58-14.34zm-18.64-2.7l6.08-.43-5.16-3.23z" fill="#7ab648"/><defs><path fill="#ef8d22" d="M135-194c53 0 70 44 70 98 0 56-19 98-73 100-31 1-45-17-59-34 3 33 2 69 2 105H25l-1-265h48c2 10 0 23 3 31 11-24 29-35 60-35zM114-30c33 0 39-31 40-66 0-38-9-64-40-64-56 0-55 130 0 130" id="k"/><path fill="#ef8d22" d="M133-34C117-15 103 5 69 4 32 3 11-16 11-54c-1-60 55-63 116-61 1-26-3-47-28-47-18 1-26 9-28 27l-52-2c7-38 36-58 82-57s74 22 75 68l1 82c-1 14 12 18 25 15v27c-30 8-71 5-69-32zm-48 3c29 0 43-24 42-57-32 0-66-3-65 30 0 17 8 27 23 27" id="l"/><path fill="#ef8d22" d="M115-3C79 11 28 4 28-45v-112H4v-33h27l15-45h31v45h36v33H77v99c-1 23 16 31 38 25v30" id="m"/><path fill="#ef8d22" d="M114-157C55-157 80-60 75 0H25v-261h50l-1 109c12-26 28-41 61-42 86-1 58 113 63 194h-50c-7-57 23-157-34-157" id="n"/><g id="a"><use transform="matrix(0.08641975308641976,0,0,0.08641975308641976,0,0)" xlink:href="#k"/><use transform="matrix(0.08641975308641976,0,0,0.08641975308641976,18.925925925925927,0)" xlink:href="#l"/><use transform="matrix(0.08641975308641976,0,0,0.08641975308641976,36.20987654320988,0)" xlink:href="#m"/><use transform="matrix(0.08641975308641976,0,0,0.08641975308641976,46.49382716049383,0)" xlink:href="#n"/></g><path fill="#6a0c14" d="M114-163C36-179 61-72 57 0H25l-1-190h30c1 12-1 29 2 39 6-27 23-49 58-41v29" id="o"/><path fill="#6a0c14" d="M100-194c62-1 85 37 85 99 1 63-27 99-86 99S16-35 15-95c0-66 28-99 85-99zM99-20c44 1 53-31 53-75 0-43-8-75-51-75s-53 32-53 75 10 74 51 75" id="p"/><path fill="#6a0c14" d="M84 4C-5 8 30-112 23-190h32v120c0 31 7 50 39 49 72-2 45-101 50-169h31l1 190h-30c-1-10 1-25-2-33-11 22-28 36-60 37" id="q"/><path fill="#6a0c14" d="M59-47c-2 24 18 29 38 22v24C64 9 27 4 27-40v-127H5v-23h24l9-43h21v43h35v23H59v120" id="r"/><path fill="#6a0c14" d="M100-194c63 0 86 42 84 106H49c0 40 14 67 53 68 26 1 43-12 49-29l28 8c-11 28-37 45-77 45C44 4 14-33 15-96c1-61 26-98 85-98zm52 81c6-60-76-77-97-28-3 7-6 17-6 28h103" id="s"/><path fill="#6a0c14" d="M16-82v-28h88v28H16" id="t"/><path fill="#6a0c14" d="M24 0v-261h32V0H24" id="u"/><path fill="#6a0c14" d="M24-231v-30h32v30H24zM24 0v-190h32V0H24" id="v"/><path fill="#6a0c14" d="M117-194c89-4 53 116 60 194h-32v-121c0-31-8-49-39-48C34-167 62-67 57 0H25l-1-190h30c1 10-1 24 2 32 11-22 29-35 61-36" id="w"/><path fill="#6a0c14" d="M143 0L79-87 56-68V0H24v-261h32v163l83-92h37l-77 82L181 0h-38" id="x"/><g id="b"><use transform="matrix(0.05,0,0,0.05,0,0)" xlink:href="#o"/><use transform="matrix(0.05,0,0,0.05,5.95,0)" xlink:href="#p"/><use transform="matrix(0.05,0,0,0.05,15.949999999999998,0)" xlink:href="#q"/><use transform="matrix(0.05,0,0,0.05,25.950000000000003,0)" xlink:href="#r"/><use transform="matrix(0.05,0,0,0.05,30.950000000000003,0)" xlink:href="#s"/><use transform="matrix(0.05,0,0,0.05,40.95,0)" xlink:href="#o"/><use transform="matrix(0.05,0,0,0.05,46.900000000000006,0)" xlink:href="#t"/><use transform="matrix(0.05,0,0,0.05,52.85,0)" xlink:href="#u"/><use transform="matrix(0.05,0,0,0.05,56.80000000000001,0)" xlink:href="#v"/><use transform="matrix(0.05,0,0,0.05,60.750000000000014,0)" xlink:href="#w"/><use transform="matrix(0.05,0,0,0.05,70.75000000000001,0)" xlink:href="#x"/></g><path fill="#0b5445" d="M114-163C36-179 61-72 57 0H25l-1-190h30c1 12-1 29 2 39 6-27 23-49 58-41v29" id="y"/><path fill="#0b5445" d="M100-194c62-1 85 37 85 99 1 63-27 99-86 99S16-35 15-95c0-66 28-99 85-99zM99-20c44 1 53-31 53-75 0-43-8-75-51-75s-53 32-53 75 10 74 51 75" id="z"/><path fill="#0b5445" d="M84 4C-5 8 30-112 23-190h32v120c0 31 7 50 39 49 72-2 45-101 50-169h31l1 190h-30c-1-10 1-25-2-33-11 22-28 36-60 37" id="A"/><path fill="#0b5445" d="M59-47c-2 24 18 29 38 22v24C64 9 27 4 27-40v-127H5v-23h24l9-43h21v43h35v23H59v120" id="B"/><path fill="#0b5445" d="M100-194c63 0 86 42 84 106H49c0 40 14 67 53 68 26 1 43-12 49-29l28 8c-11 28-37 45-77 45C44 4 14-33 15-96c1-61 26-98 85-98zm52 81c6-60-76-77-97-28-3 7-6 17-6 28h103" id="C"/><path fill="#0b5445" d="M16-82v-28h88v28H16" id="D"/><path fill="#0b5445" d="M108 0H70L1-190h34L89-25l56-165h34" id="E"/><path fill="#0b5445" d="M24-231v-30h32v30H24zM24 0v-190h32V0H24" id="F"/><path fill="#0b5445" d="M206 0h-36l-40-164L89 0H53L-1-190h32L70-26l43-164h34l41 164 42-164h31" id="G"/><g id="c"><use transform="matrix(0.05,0,0,0.05,0,0)" xlink:href="#y"/><use transform="matrix(0.05,0,0,0.05,5.95,0)" xlink:href="#z"/><use transform="matrix(0.05,0,0,0.05,15.949999999999998,0)" xlink:href="#A"/><use transform="matrix(0.05,0,0,0.05,25.950000000000003,0)" xlink:href="#B"/><use transform="matrix(0.05,0,0,0.05,30.950000000000003,0)" xlink:href="#C"/><use transform="matrix(0.05,0,0,0.05,40.95,0)" xlink:href="#y"/><use transform="matrix(0.05,0,0,0.05,46.900000000000006,0)" xlink:href="#D"/><use transform="matrix(0.05,0,0,0.05,52.85,0)" xlink:href="#E"/><use transform="matrix(0.05,0,0,0.05,61.85,0)" xlink:href="#F"/><use transform="matrix(0.05,0,0,0.05,65.80000000000001,0)" xlink:href="#C"/><use transform="matrix(0.05,0,0,0.05,75.80000000000001,0)" xlink:href="#G"/></g><path fill="#834187" d="M135-194c53 0 70 44 70 98 0 56-19 98-73 100-31 1-45-17-59-34 3 33 2 69 2 105H25l-1-265h48c2 10 0 23 3 31 11-24 29-35 60-35zM114-30c33 0 39-31 40-66 0-38-9-64-40-64-56 0-55 130 0 130" id="H"/><path fill="#834187" d="M85 4C-2 5 27-109 22-190h50c7 57-23 150 33 157 60-5 35-97 40-157h50l1 190h-47c-2-12 1-28-3-38-12 25-28 42-61 42" id="I"/><path fill="#834187" d="M137-138c1-29-70-34-71-4 15 46 118 7 119 86 1 83-164 76-172 9l43-7c4 19 20 25 44 25 33 8 57-30 24-41C81-84 22-81 20-136c-2-80 154-74 161-7" id="J"/><path fill="#834187" d="M114-157C55-157 80-60 75 0H25v-261h50l-1 109c12-26 28-41 61-42 86-1 58 113 63 194h-50c-7-57 23-157-34-157" id="K"/><g id="d"><use transform="matrix(0.07407407407407408,0,0,0.07407407407407408,0,0)" xlink:href="#H"/><use transform="matrix(0.07407407407407408,0,0,0.07407407407407408,16.222222222222225,0)" xlink:href="#I"/><use transform="matrix(0.07407407407407408,0,0,0.07407407407407408,32.44444444444445,0)" xlink:href="#J"/><use transform="matrix(0.07407407407407408,0,0,0.07407407407407408,47.25925925925927,0)" xlink:href="#K"/></g><path fill="#ef8d22" d="M135-150c-39-12-60 13-60 57V0H25l-1-190h47c2 13-1 29 3 40 6-28 27-53 61-41v41" id="L"/><path fill="#ef8d22" d="M110-194c64 0 96 36 96 99 0 64-35 99-97 99-61 0-95-36-95-99 0-62 34-99 96-99zm-1 164c35 0 45-28 45-65 0-40-10-65-43-65-34 0-45 26-45 65 0 36 10 65 43 65" id="M"/><path fill="#ef8d22" d="M185-48c-13 30-37 53-82 52C43 2 14-33 14-96s30-98 90-98c62 0 83 45 84 108H66c0 31 8 55 39 56 18 0 30-7 34-22zm-45-69c5-46-57-63-70-21-2 6-4 13-4 21h74" id="N"/><path fill="#ef8d22" d="M25-224v-37h50v37H25zM25 0v-190h50V0H25" id="O"/><path fill="#ef8d22" d="M137-138c1-29-70-34-71-4 15 46 118 7 119 86 1 83-164 76-172 9l43-7c4 19 20 25 44 25 33 8 57-30 24-41C81-84 22-81 20-136c-2-80 154-74 161-7" id="P"/><g id="e"><use transform="matrix(0.07407407407407408,0,0,0.07407407407407408,0,0)" xlink:href="#k"/><use transform="matrix(0.07407407407407408,0,0,0.07407407407407408,16.222222222222225,0)" xlink:href="#L"/><use transform="matrix(0.07407407407407408,0,0,0.07407407407407408,26.592592592592595,0)" xlink:href="#M"/><use transform="matrix(0.07407407407407408,0,0,0.07407407407407408,42.814814814814824,0)" xlink:href="#k"/><use transform="matrix(0.07407407407407408,0,0,0.07407407407407408,59.03703703703705,0)" xlink:href="#N"/><use transform="matrix(0.07407407407407408,0,0,0.07407407407407408,73.85185185185188,0)" xlink:href="#L"/><use transform="matrix(0.07407407407407408,0,0,0.07407407407407408,84.22222222222226,0)" xlink:href="#m"/><use transform="matrix(0.07407407407407408,0,0,0.07407407407407408,93.03703703703707,0)" xlink:href="#O"/><use transform="matrix(0.07407407407407408,0,0,0.07407407407407408,100.44444444444447,0)" xlink:href="#N"/><use transform="matrix(0.07407407407407408,0,0,0.07407407407407408,115.2592592592593,0)" xlink:href="#P"/><use transform="matrix(0.07407407407407408,0,0,0.07407407407407408,130.0740740740741,0)" xlink:href="#P"/></g><path fill="#6a0c14" d="M135-150c-39-12-60 13-60 57V0H25l-1-190h47c2 13-1 29 3 40 6-28 27-53 61-41v41" id="Q"/><path fill="#6a0c14" d="M110-194c64 0 96 36 96 99 0 64-35 99-97 99-61 0-95-36-95-99 0-62 34-99 96-99zm-1 164c35 0 45-28 45-65 0-40-10-65-43-65-34 0-45 26-45 65 0 36 10 65 43 65" id="R"/><path fill="#6a0c14" d="M85 4C-2 5 27-109 22-190h50c7 57-23 150 33 157 60-5 35-97 40-157h50l1 190h-47c-2-12 1-28-3-38-12 25-28 42-61 42" id="S"/><path fill="#6a0c14" d="M115-3C79 11 28 4 28-45v-112H4v-33h27l15-45h31v45h36v33H77v99c-1 23 16 31 38 25v30" id="T"/><path fill="#6a0c14" d="M185-48c-13 30-37 53-82 52C43 2 14-33 14-96s30-98 90-98c62 0 83 45 84 108H66c0 31 8 55 39 56 18 0 30-7 34-22zm-45-69c5-46-57-63-70-21-2 6-4 13-4 21h74" id="U"/><path fill="#6a0c14" d="M137-138c1-29-70-34-71-4 15 46 118 7 119 86 1 83-164 76-172 9l43-7c4 19 20 25 44 25 33 8 57-30 24-41C81-84 22-81 20-136c-2-80 154-74 161-7" id="V"/><g id="f"><use transform="matrix(0.09876543209876544,0,0,0.09876543209876544,0,0)" xlink:href="#Q"/><use transform="matrix(0.09876543209876544,0,0,0.09876543209876544,13.827160493827162,0)" xlink:href="#R"/><use transform="matrix(0.09876543209876544,0,0,0.09876543209876544,35.45679012345679,0)" xlink:href="#S"/><use transform="matrix(0.09876543209876544,0,0,0.09876543209876544,57.08641975308641,0)" xlink:href="#T"/><use transform="matrix(0.09876543209876544,0,0,0.09876543209876544,68.8395061728395,0)" xlink:href="#U"/><use transform="matrix(0.09876543209876544,0,0,0.09876543209876544,88.5925925925926,0)" xlink:href="#V"/></g><path fill="#7ab648" d="M240-174c0 40-23 61-54 70L253 0h-59l-57-94H76V0H24v-248c93 4 217-23 216 74zM76-134c48-2 112 12 112-38 0-48-66-32-112-35v73" id="W"/><path fill="#7ab648" d="M140-251c80 0 125 45 125 126S219 4 139 4C58 4 15-44 15-125s44-126 125-126zm-1 214c52 0 73-35 73-88 0-50-21-86-72-86-52 0-73 35-73 86s22 88 72 88" id="X"/><path fill="#7ab648" d="M238-95c0 69-44 99-111 99C63 4 22-25 22-93v-155h51v151c-1 38 19 59 55 60 90 1 49-130 58-211h52v153" id="Y"/><path fill="#7ab648" d="M136-208V0H84v-208H4v-40h212v40h-80" id="Z"/><path fill="#7ab648" d="M24 0v-248h195v40H76v63h132v40H76v65h150V0H24" id="aa"/><g id="g"><use transform="matrix(0.2222222222222222,0,0,0.2222222222222222,0,0)" xlink:href="#W"/><use transform="matrix(0.2222222222222222,0,0,0.2222222222222222,57.55555555555555,0)" xlink:href="#X"/><use transform="matrix(0.2222222222222222,0,0,0.2222222222222222,119.77777777777777,0)" xlink:href="#Y"/><use transform="matrix(0.2222222222222222,0,0,0.2222222222222222,177.33333333333331,0)" xlink:href="#Z"/><use transform="matrix(0.2222222222222222,0,0,0.2222222222222222,225.99999999999997,0)" xlink:href="#aa"/><use transform="matrix(0.2222222222222222,0,0,0.2222222222222222,279.3333333333333,0)" xlink:href="#W"/></g><path fill="#834187" d="M190-63c-7 42-38 67-86 67-59 0-84-38-90-98-12-110 154-137 174-36l-49 2c-2-19-15-32-35-32-30 0-35 28-38 64-6 74 65 87 74 30" id="ab"/><path fill="#834187" d="M110-194c64 0 96 36 96 99 0 64-35 99-97 99-61 0-95-36-95-99 0-62 34-99 96-99zm-1 164c35 0 45-28 45-65 0-40-10-65-43-65-34 0-45 26-45 65 0 36 10 65 43 65" id="ac"/><path fill="#834187" d="M220-157c-53 9-28 100-34 157h-49v-107c1-27-5-49-29-50C55-147 81-57 75 0H25l-1-190h47c2 12-1 28 3 38 10-53 101-56 108 0 13-22 24-43 59-42 82 1 51 116 57 194h-49v-107c-1-25-5-48-29-50" id="ad"/><path fill="#834187" d="M135-194c87-1 58 113 63 194h-50c-7-57 23-157-34-157-59 0-34 97-39 157H25l-1-190h47c2 12-1 28 3 38 12-26 28-41 61-42" id="ae"/><path fill="#834187" d="M185-48c-13 30-37 53-82 52C43 2 14-33 14-96s30-98 90-98c62 0 83 45 84 108H66c0 31 8 55 39 56 18 0 30-7 34-22zm-45-69c5-46-57-63-70-21-2 6-4 13-4 21h74" id="af"/><path fill="#834187" d="M115-3C79 11 28 4 28-45v-112H4v-33h27l15-45h31v45h36v33H77v99c-1 23 16 31 38 25v30" id="ag"/><g id="h"><use transform="matrix(0.08641975308641976,0,0,0.08641975308641976,0,0)" xlink:href="#ab"/><use transform="matrix(0.08641975308641976,0,0,0.08641975308641976,17.283950617283953,0)" xlink:href="#ac"/><use transform="matrix(0.08641975308641976,0,0,0.08641975308641976,36.20987654320988,0)" xlink:href="#ad"/><use transform="matrix(0.08641975308641976,0,0,0.08641975308641976,63.8641975308642,0)" xlink:href="#H"/><use transform="matrix(0.08641975308641976,0,0,0.08641975308641976,82.79012345679013,0)" xlink:href="#ac"/><use transform="matrix(0.08641975308641976,0,0,0.08641975308641976,101.71604938271606,0)" xlink:href="#ae"/><use transform="matrix(0.08641975308641976,0,0,0.08641975308641976,120.64197530864197,0)" xlink:href="#af"/><use transform="matrix(0.08641975308641976,0,0,0.08641975308641976,137.92592592592592,0)" xlink:href="#ae"/><use transform="matrix(0.08641975308641976,0,0,0.08641975308641976,156.85185185185185,0)" xlink:href="#ag"/></g><path fill="#0c7cba" d="M230 0l2-204L168 0h-37L68-204 70 0H24v-248h70l56 185 57-185h69V0h-46" id="ah"/><path fill="#0c7cba" d="M110-194c64 0 96 36 96 99 0 64-35 99-97 99-61 0-95-36-95-99 0-62 34-99 96-99zm-1 164c35 0 45-28 45-65 0-40-10-65-43-65-34 0-45 26-45 65 0 36 10 65 43 65" id="ai"/><path fill="#0c7cba" d="M88-194c31-1 46 15 58 34l-1-101h50l1 261h-48c-2-10 0-23-3-31C134-8 116 4 84 4 32 4 16-41 15-95c0-56 19-97 73-99zm17 164c33 0 40-30 41-66 1-37-9-64-41-64s-38 30-39 65c0 43 13 65 39 65" id="aj"/><path fill="#0c7cba" d="M185-48c-13 30-37 53-82 52C43 2 14-33 14-96s30-98 90-98c62 0 83 45 84 108H66c0 31 8 55 39 56 18 0 30-7 34-22zm-45-69c5-46-57-63-70-21-2 6-4 13-4 21h74" id="ak"/><path fill="#0c7cba" d="M25 0v-261h50V0H25" id="al"/><g id="i"><use transform="matrix(0.1111111111111111,0,0,0.1111111111111111,0,0)" xlink:href="#ah"/><use transform="matrix(0.1111111111111111,0,0,0.1111111111111111,33.22222222222222,0)" xlink:href="#ai"/><use transform="matrix(0.1111111111111111,0,0,0.1111111111111111,57.55555555555555,0)" xlink:href="#aj"/><use transform="matrix(0.1111111111111111,0,0,0.1111111111111111,81.88888888888889,0)" xlink:href="#ak"/><use transform="matrix(0.1111111111111111,0,0,0.1111111111111111,104.11111111111111,0)" xlink:href="#al"/></g><path fill="#fff" d="M111-147c44 9 85 22 84 75-1 49-35 65-84 68v31H91V-4C40-5 12-27 5-72l45-8c4 24 15 38 41 40-2-22 4-51-2-69-39-10-76-22-76-72 0-47 35-60 78-63v-23h20v23c47 1 70 23 78 62l-46 7c-4-18-12-32-32-34v62zm-20-63c-33-4-45 46-13 54 4 1 8 2 13 4v-58zm20 170c39 5 53-51 15-60-7-2-7-2-15-4v64" id="am"/><path fill="#fff" d="M135-150c-39-12-60 13-60 57V0H25l-1-190h47c2 13-1 29 3 40 6-28 27-53 61-41v41" id="an"/><path fill="#fff" d="M110-194c64 0 96 36 96 99 0 64-35 99-97 99-61 0-95-36-95-99 0-62 34-99 96-99zm-1 164c35 0 45-28 45-65 0-40-10-65-43-65-34 0-45 26-45 65 0 36 10 65 43 65" id="ao"/><path fill="#fff" d="M85 4C-2 5 27-109 22-190h50c7 57-23 150 33 157 60-5 35-97 40-157h50l1 190h-47c-2-12 1-28-3-38-12 25-28 42-61 42" id="ap"/><path fill="#fff" d="M115-3C79 11 28 4 28-45v-112H4v-33h27l15-45h31v45h36v33H77v99c-1 23 16 31 38 25v30" id="aq"/><path fill="#fff" d="M185-48c-13 30-37 53-82 52C43 2 14-33 14-96s30-98 90-98c62 0 83 45 84 108H66c0 31 8 55 39 56 18 0 30-7 34-22zm-45-69c5-46-57-63-70-21-2 6-4 13-4 21h74" id="ar"/><g id="j"><use transform="matrix(0.07407407407407408,0,0,0.07407407407407408,0,0)" xlink:href="#am"/><use transform="matrix(0.07407407407407408,0,0,0.07407407407407408,14.814814814814817,0)" xlink:href="#an"/><use transform="matrix(0.07407407407407408,0,0,0.07407407407407408,25.185185185185187,0)" xlink:href="#ao"/><use transform="matrix(0.07407407407407408,0,0,0.07407407407407408,41.40740740740742,0)" xlink:href="#ap"/><use transform="matrix(0.07407407407407408,0,0,0.07407407407407408,57.62962962962965,0)" xlink:href="#aq"/><use transform="matrix(0.07407407407407408,0,0,0.07407407407407408,66.44444444444446,0)" xlink:href="#ar"/></g></defs></g></svg>