<svg xmlns="http://www.w3.org/2000/svg" viewBox="0 0 389.85 450.83">
  <title>events-1</title>
  <g>
    <polyline points="328.67 74.9 328.72 72.4 326.53 73.6" style="fill: none;stroke: #662d91;stroke-miterlimit: 10;stroke-width: 4px"/>
    <line x1="322.16" y1="75.99" x2="62.23" y2="218.44" style="fill: none;stroke: #662d91;stroke-miterlimit: 10;stroke-width: 4px;stroke-dasharray: 4.981678485870361,4.981678485870361"/>
    <polyline points="60.04 219.64 57.85 220.84 59.99 222.14" style="fill: none;stroke: #662d91;stroke-miterlimit: 10;stroke-width: 4px"/>
    <line x1="64.25" y1="224.73" x2="317.58" y2="378.61" style="fill: none;stroke: #662d91;stroke-miterlimit: 10;stroke-width: 4px;stroke-dasharray: 4.981678485870361,4.981678485870361"/>
    <polyline points="319.71 379.9 321.85 381.2 321.9 378.7" style="fill: none;stroke: #662d91;stroke-miterlimit: 10;stroke-width: 4px"/>
    <line x1="322.01" y1="373.72" x2="328.61" y2="77.39" style="fill: none;stroke: #662d91;stroke-miterlimit: 10;stroke-width: 4px;stroke-dasharray: 4.981678485870361,4.981678485870361"/>
  </g>
  <polygon points="329.86 26.98 287.71 99.98 372 99.98 329.86 26.98" style="fill: #2e3192"/>
  <g>
    <circle cx="50" cy="216.98" r="49.5" style="fill: #ed1c24"/>
    <path d="M70.49,204.69a49,49,0,1,1-49,49,49.05,49.05,0,0,1,49-49m0-1a50,50,0,1,0,50,50,50,50,0,0,0-50-50Z" transform="translate(-20.49 -36.71)" style="fill: #fff"/>
  </g>
  <rect x="278" y="353.98" width="90" height="62" style="fill: #009245"/>
  <g>
    <path d="M341.54,432.11l-17.67-7.68v-4.25l17.67-7.65v5l-12.32,4.71,12.32,4.89Z" transform="translate(-20.49 -36.71)" style="fill: #fff"/>
    <path d="M344.9,432.13v-5l12.33-4.85-12.33-4.8v-4.94l17.68,7.64v4.22Z" transform="translate(-20.49 -36.71)" style="fill: #fff"/>
  </g>
  <path d="M345.86,105.41h4.2a22.73,22.73,0,0,1,2.37-6.54,9.79,9.79,0,0,1,3.48-3.38,8.11,8.11,0,0,1,4-1.24,2.6,2.6,0,0,1,1.61.42,1.22,1.22,0,0,1,.55,1,1.18,1.18,0,0,1-.37.88,1.37,1.37,0,0,1-1,.35,13,13,0,0,1-2.32-.37,7.61,7.61,0,0,0-1.32-.17,2.57,2.57,0,0,0-2.1,1.43,12.27,12.27,0,0,0-1.5,3.88l-.88,3.74h4.66l-.28,1.25h-4.72l-2.75,11.21a15.49,15.49,0,0,1-4.11,7.75,8.81,8.81,0,0,1-6.12,2.64,2.74,2.74,0,0,1-1.68-.43,1.29,1.29,0,0,1-.57-1.06,1.06,1.06,0,0,1,.39-.87,1.74,1.74,0,0,1,1.14-.33,9.69,9.69,0,0,1,1.09.09,17.62,17.62,0,0,0,2.35.16,3.36,3.36,0,0,0,2.53-.82,9.9,9.9,0,0,0,1.58-4l3.57-14.34h-4.2Z" transform="translate(-20.49 -36.71)" style="fill: #fff"/>
  <g>
    <path d="M44.47,256.64l.58.77q-4.3,4.09-7.38,4.1a2.27,2.27,0,0,1-1.91-.85,4.39,4.39,0,0,1-.66-2.7,14.15,14.15,0,0,1,2.29-7.49q2.56-4.25,6.13-4.24a2.67,2.67,0,0,1,1.91.63,2.22,2.22,0,0,1,.66,1.71,3.9,3.9,0,0,1-.79,2.25,9.06,9.06,0,0,1-2.83,2.3c-.68.39-2.14,1.09-4.36,2.09A10.68,10.68,0,0,0,38,257a2.82,2.82,0,0,0,.4,1.74,1.4,1.4,0,0,0,1.15.49,3.78,3.78,0,0,0,1.58-.41A22.45,22.45,0,0,0,44.47,256.64Zm-6.15-2.55a13.56,13.56,0,0,0,4.25-2.73,2.94,2.94,0,0,0,1-2,1.72,1.72,0,0,0-.4-1.2,1.29,1.29,0,0,0-1-.45,2.05,2.05,0,0,0-1.27.49,5,5,0,0,0-1.39,2A17.51,17.51,0,0,0,38.32,254.09Z" transform="translate(-20.49 -36.71)" style="fill: #fff"/>
    <path d="M55.6,247.94a16.92,16.92,0,0,0-1.87,3.81,10.81,10.81,0,0,0-.52,3.29,25.75,25.75,0,0,0,.67,4.73,22.52,22.52,0,0,0,5.5-5.53A8.75,8.75,0,0,0,61,249.8a3.28,3.28,0,0,0-.4-1.37,3.46,3.46,0,0,1-.44-1.3,1.14,1.14,0,0,1,.32-.8,1,1,0,0,1,.75-.34,1.06,1.06,0,0,1,.93.5,3,3,0,0,1,.36,1.69,12.08,12.08,0,0,1-2.66,7.3,21.67,21.67,0,0,1-8.24,6.71c-.08-.55-.25-1.43-.49-2.63a31.13,31.13,0,0,1-.72-5.07,8.12,8.12,0,0,1,.87-3.64,8.74,8.74,0,0,1,2.61-3.07,11.57,11.57,0,0,0-4.43.68c-.64.31-1,.67-1,1.08a2.54,2.54,0,0,0,.24.82,1.87,1.87,0,0,1,.16.69.66.66,0,0,1-.24.5.8.8,0,0,1-.59.22,1,1,0,0,1-.77-.39,1.59,1.59,0,0,1-.32-1,2.87,2.87,0,0,1,.69-1.88A4.72,4.72,0,0,1,50,247.16a16.71,16.71,0,0,1,4.47-.44,5.55,5.55,0,0,1,1.42-.49.71.71,0,0,1,.51.23.7.7,0,0,1,.23.49C56.67,247.32,56.31,247.64,55.6,247.94Z" transform="translate(-20.49 -36.71)" style="fill: #fff"/>
    <path d="M72.54,256.64l.58.77q-4.31,4.09-7.38,4.1a2.27,2.27,0,0,1-1.91-.85,4.39,4.39,0,0,1-.66-2.7,14.24,14.24,0,0,1,2.29-7.49c1.71-2.83,3.76-4.24,6.13-4.24a2.65,2.65,0,0,1,1.91.63,2.22,2.22,0,0,1,.66,1.71,3.83,3.83,0,0,1-.79,2.25,9.06,9.06,0,0,1-2.83,2.3q-1,.58-4.36,2.09A10.68,10.68,0,0,0,66,257a2.82,2.82,0,0,0,.4,1.74,1.41,1.41,0,0,0,1.15.49,3.75,3.75,0,0,0,1.58-.41A22,22,0,0,0,72.54,256.64Zm-6.15-2.55a13.62,13.62,0,0,0,4.26-2.73,3,3,0,0,0,1-2,1.77,1.77,0,0,0-.39-1.2,1.32,1.32,0,0,0-1-.45,2.05,2.05,0,0,0-1.27.49,5,5,0,0,0-1.39,2A17.51,17.51,0,0,0,66.39,254.09Z" transform="translate(-20.49 -36.71)" style="fill: #fff"/>
    <path d="M76.09,250.4l-.59-.62a18.14,18.14,0,0,1,3.59-2.86,5.11,5.11,0,0,1,2.28-.71,1,1,0,0,1,.58.16.47.47,0,0,1,.21.37,3.78,3.78,0,0,1-.08.56l-.8,3.54a21.89,21.89,0,0,1,4.5-3.71,4.83,4.83,0,0,1,2.37-.9,1.37,1.37,0,0,1,1.07.44,1.91,1.91,0,0,1,.38,1.27,5.33,5.33,0,0,1-.16,1.23q-.27,1.14-1.47,5a21.06,21.06,0,0,0-1.12,4.77,1.09,1.09,0,0,0,.11.54.33.33,0,0,0,.3.18c.34,0,.87-.33,1.6-1,.51-.47,1-.9,1.54-1.3l.44.63a15.71,15.71,0,0,1-3.36,2.87,3.61,3.61,0,0,1-1.82.7,1.24,1.24,0,0,1-1-.48,2.59,2.59,0,0,1-.37-1.57c0-1.05.65-3.64,2-7.79a18.27,18.27,0,0,0,.6-2.59c0-.36-.22-.54-.65-.54a3.6,3.6,0,0,0-1.81.74,11,11,0,0,0-2.76,2.57,8.37,8.37,0,0,0-1.18,3L79,261.05H76.36q.73-2.64,1.28-5.05l1.57-6.69a3.79,3.79,0,0,0,.08-.58c0-.32-.11-.48-.35-.48a1.64,1.64,0,0,0-.81.38A11.16,11.16,0,0,0,76.09,250.4Z" transform="translate(-20.49 -36.71)" style="fill: #fff"/>
    <path d="M97.05,243.56l2.79-1.07-1.26,4.92h3.64l-.29,1.25H98.29l-1.53,5.89a16.53,16.53,0,0,0-.73,3.69,1,1,0,0,0,.2.68.72.72,0,0,0,.55.21,3.81,3.81,0,0,0,1.67-.65,20.82,20.82,0,0,0,2.82-2l.66.81a42.63,42.63,0,0,1-5.15,3.55,4.9,4.9,0,0,1-2.09.65,1.28,1.28,0,0,1-1-.47,2.52,2.52,0,0,1-.37-1.55,17.63,17.63,0,0,1,.66-3.87l1.79-7H92.9l.31-1.25h2.85Z" transform="translate(-20.49 -36.71)" style="fill: #fff"/>
  </g>
  <g>
    <path d="M285.37,485l.27.38A9.08,9.08,0,0,1,283.7,487a2.27,2.27,0,0,1-1.12.42.7.7,0,0,1-.58-.28,1.55,1.55,0,0,1-.22-.9,6.39,6.39,0,0,1,.17-1.19c.11-.52.43-1.65,1-3.37a10.67,10.67,0,0,0,.35-1.49c0-.21-.12-.32-.35-.32a2.06,2.06,0,0,0-1.08.43,6.35,6.35,0,0,0-1.6,1.51,4.43,4.43,0,0,0-.71,1.75l-.81,3.58h-1.53c.33-1.2.58-2.17.76-2.93l1.5-6.58a8.43,8.43,0,0,1,1.09-2.81,5,5,0,0,1,1.75-1.57,4.45,4.45,0,0,1,2.14-.58,1,1,0,0,1,.69.22.66.66,0,0,1,.26.55.62.62,0,0,1-.25.49,1,1,0,0,1-.68.22,4.34,4.34,0,0,1-.64-.06,9.46,9.46,0,0,0-1.22-.13.94.94,0,0,0-.77.38,5.29,5.29,0,0,0-.62,1.79l-1.14,5.06a13.26,13.26,0,0,1,2.66-2.16,2.89,2.89,0,0,1,1.35-.52.82.82,0,0,1,.63.24.88.88,0,0,1,.22.65,2.74,2.74,0,0,1-.08.7c-.09.41-.3,1.14-.62,2.2-.45,1.46-.71,2.37-.79,2.72a4.48,4.48,0,0,0-.12,1,.38.38,0,0,0,.06.24.18.18,0,0,0,.17.09c.16,0,.47-.2.92-.59Z" transform="translate(-20.49 -36.71)" style="fill: #4d4d4d"/>
    <path d="M289.25,477l1.63-.62-.74,2.87h2.12l-.16.73H290l-.89,3.43a9.52,9.52,0,0,0-.43,2.16.58.58,0,0,0,.12.4.44.44,0,0,0,.32.12,2.32,2.32,0,0,0,1-.38,14.13,14.13,0,0,0,1.64-1.14l.39.47a25.17,25.17,0,0,1-3,2.07,2.81,2.81,0,0,1-1.22.38.74.74,0,0,1-.6-.27,1.54,1.54,0,0,1-.22-.91,10.07,10.07,0,0,1,.39-2.25l1.05-4.08h-1.66l.18-.73h1.66Z" transform="translate(-20.49 -36.71)" style="fill: #4d4d4d"/>
    <path d="M293.37,480.91l-.31-.41A8.52,8.52,0,0,1,295,479a3.41,3.41,0,0,1,1.44-.48.52.52,0,0,1,.33.09.34.34,0,0,1,.1.26,3.5,3.5,0,0,1-.16.79c-.16.57-.27,1-.33,1.36,1.64-1.66,2.89-2.5,3.75-2.5a.67.67,0,0,1,.52.19.85.85,0,0,1,.17.58,5.86,5.86,0,0,1-.31,1.47,10.21,10.21,0,0,1,2-1.73,3,3,0,0,1,1.35-.51.87.87,0,0,1,.67.25,1.1,1.1,0,0,1,.23.76,3.15,3.15,0,0,1-.1.73c-.07.27-.32,1.13-.75,2.56a18.58,18.58,0,0,0-.81,3.17c0,.23.1.35.29.35a.72.72,0,0,0,.38-.13,10.19,10.19,0,0,0,1.24-1.06l.34.37c-.15.11-.42.35-.81.71a10.54,10.54,0,0,1-1.13.93,2.11,2.11,0,0,1-1,.34.69.69,0,0,1-.54-.3,1.3,1.3,0,0,1-.24-.83,5.34,5.34,0,0,1,.15-1.16q.13-.66.84-3a11.28,11.28,0,0,0,.52-2.1c0-.23-.1-.35-.31-.35a1.46,1.46,0,0,0-.68.26,5.48,5.48,0,0,0-1.48,1.3A5.14,5.14,0,0,0,300,483q-.69,2.54-1,4.14h-1.46l1.53-6.27a5.81,5.81,0,0,0,.16-.78.33.33,0,0,0-.08-.25.29.29,0,0,0-.23-.09,1.8,1.8,0,0,0-.86.43,5.64,5.64,0,0,0-1.46,1.41,6.8,6.8,0,0,0-.77,2.08l-.78,3.47h-1.48l1.16-4.9c.34-1.41.51-2.18.51-2.3s-.06-.24-.18-.24S294.19,480.13,293.37,480.91Z" transform="translate(-20.49 -36.71)" style="fill: #4d4d4d"/>
    <path d="M310.38,484.7l.35.37a9.82,9.82,0,0,1-1.89,1.65,3.45,3.45,0,0,1-1.8.74.68.68,0,0,1-.53-.24,1,1,0,0,1-.2-.66,18.58,18.58,0,0,1,.63-3.4l1.11-4.5a19.53,19.53,0,0,1,1-3.28,4.84,4.84,0,0,1,1.8-1.95,4.74,4.74,0,0,1,2.45-.69,1.06,1.06,0,0,1,.7.21.66.66,0,0,1,.25.51.69.69,0,0,1-.25.54,1,1,0,0,1-.71.22,5.09,5.09,0,0,1-.87-.11,6.12,6.12,0,0,0-.91-.08,1.06,1.06,0,0,0-.64.17,2.33,2.33,0,0,0-.53,1c-.16.52-.42,1.55-.78,3.1l-1,4.29c-.5,2.16-.76,3.28-.76,3.38s.08.33.24.33a1.45,1.45,0,0,0,.66-.27A10.64,10.64,0,0,0,310.38,484.7Z" transform="translate(-20.49 -36.71)" style="fill: #4d4d4d"/>
    <path d="M311.36,482.46h4.75l-.24,1h-4.78Z" transform="translate(-20.49 -36.71)" style="fill: #4d4d4d"/>
    <path d="M322.55,483.17h-2.68l.16-.62h2.64a7.65,7.65,0,0,0,.13-1.26c0-1.26-.38-1.9-1.15-1.9a4.2,4.2,0,0,0-2.74,1.37l-.45-.36a5.75,5.75,0,0,1,3.87-1.85,2.14,2.14,0,0,1,1.57.53,2.5,2.5,0,0,1,.53,1.8,7.45,7.45,0,0,1-1.53,4.46,4.41,4.41,0,0,1-3.62,2.1,2.49,2.49,0,0,1-1.66-.5,1.58,1.58,0,0,1-.57-1.21.8.8,0,0,1,.22-.59.71.71,0,0,1,.54-.24.77.77,0,0,1,.5.18.61.61,0,0,1,.21.47,1.38,1.38,0,0,1,0,.26,1.85,1.85,0,0,0,0,.23.67.67,0,0,0,.31.59,1.16,1.16,0,0,0,.72.22C320.88,486.85,321.9,485.62,322.55,483.17Z" transform="translate(-20.49 -36.71)" style="fill: #4d4d4d"/>
    <path d="M334.42,485.36c-1.29,1.39-2.32,2.08-3.09,2.08a.87.87,0,0,1-.61-.29,3,3,0,0,1-.42-1.55l-.42-4.29a18.54,18.54,0,0,1-2.44,5.05,2.85,2.85,0,0,1-2.12,1.08,1.15,1.15,0,0,1-.8-.26.85.85,0,0,1-.32-.69.92.92,0,0,1,.26-.67.85.85,0,0,1,.63-.26,1.81,1.81,0,0,1,.58.15,1.54,1.54,0,0,0,.58.14,1.42,1.42,0,0,0,1-.49,11.25,11.25,0,0,0,1.48-2.8,17,17,0,0,0,1-2.55c0-.21-.09-.32-.28-.32-.42,0-1,.41-1.85,1.22l-.43-.36c1.44-1.33,2.55-2,3.33-2a.6.6,0,0,1,.58.27,4.33,4.33,0,0,1,.22,1.18l.41,4.93c.08.93.3,1.4.66,1.4.19,0,.49-.2.92-.58s.72-.64.88-.76Z" transform="translate(-20.49 -36.71)" style="fill: #4d4d4d"/>
    <path d="M339.72,484.6l.34.45c-1.68,1.6-3.12,2.39-4.31,2.39a1.3,1.3,0,0,1-1.11-.49,2.55,2.55,0,0,1-.39-1.58,8.38,8.38,0,0,1,1.33-4.37c1-1.64,2.2-2.47,3.58-2.47a1.55,1.55,0,0,1,1.12.37,1.32,1.32,0,0,1,.38,1,2.22,2.22,0,0,1-.46,1.31,5.34,5.34,0,0,1-1.65,1.34c-.4.23-1.25.63-2.55,1.22a6.6,6.6,0,0,0-.09,1.06,1.68,1.68,0,0,0,.23,1,.83.83,0,0,0,.68.29,2.17,2.17,0,0,0,.92-.24A12.91,12.91,0,0,0,339.72,484.6Zm-3.59-1.48a8.29,8.29,0,0,0,2.48-1.59,1.73,1.73,0,0,0,.56-1.18,1,1,0,0,0-.23-.7.74.74,0,0,0-.6-.27,1.2,1.2,0,0,0-.74.29,2.87,2.87,0,0,0-.81,1.15A10.56,10.56,0,0,0,336.13,483.12Z" transform="translate(-20.49 -36.71)" style="fill: #4d4d4d"/>
    <path d="M343.41,480.91l-.45-.36c1.44-1.33,2.54-2,3.29-2,.35,0,.56.22.6.66l.71,6.38,4.26-6.77h1.45l-1,3.58a28.5,28.5,0,0,0-.84,3.55c0,.26.1.4.29.4s.82-.45,1.7-1.34l.34.38c-1.37,1.43-2.39,2.14-3,2.14a.75.75,0,0,1-.54-.25.93.93,0,0,1-.25-.71,19.08,19.08,0,0,1,.71-3.42l.62-2.39-4.16,6.67h-.78l-.66-5.94c-1,2.76-1.74,4.45-2.33,5.05a2.78,2.78,0,0,1-2,.9,1.09,1.09,0,0,1-.83-.29,1,1,0,0,1,0-1.32.79.79,0,0,1,.61-.27,1.72,1.72,0,0,1,.61.15,1.94,1.94,0,0,0,.58.15,1.25,1.25,0,0,0,.91-.54,12.56,12.56,0,0,0,1.36-2.72,11.94,11.94,0,0,0,.89-2.62.23.23,0,0,0-.26-.26C344.79,479.72,344.19,480.12,343.41,480.91Z" transform="translate(-20.49 -36.71)" style="fill: #4d4d4d"/>
    <path d="M359.92,484.6l.34.45c-1.68,1.6-3.11,2.39-4.31,2.39a1.3,1.3,0,0,1-1.11-.49,2.55,2.55,0,0,1-.39-1.58,8.38,8.38,0,0,1,1.33-4.37c1-1.64,2.2-2.47,3.58-2.47a1.55,1.55,0,0,1,1.12.37,1.32,1.32,0,0,1,.38,1,2.22,2.22,0,0,1-.46,1.31,5.34,5.34,0,0,1-1.65,1.34c-.4.23-1.25.63-2.54,1.22a5.66,5.66,0,0,0-.1,1.06,1.68,1.68,0,0,0,.23,1,.83.83,0,0,0,.68.29,2.17,2.17,0,0,0,.92-.24A12.91,12.91,0,0,0,359.92,484.6Zm-3.59-1.48a8.29,8.29,0,0,0,2.48-1.59,1.73,1.73,0,0,0,.56-1.18,1,1,0,0,0-.23-.7.74.74,0,0,0-.6-.27,1.2,1.2,0,0,0-.74.29,2.87,2.87,0,0,0-.81,1.15A10.56,10.56,0,0,0,356.33,483.12Z" transform="translate(-20.49 -36.71)" style="fill: #4d4d4d"/>
    <path d="M370.58,485.38c-1.37,1.44-2.38,2.15-3,2.15a.75.75,0,0,1-.54-.25,1,1,0,0,1-.25-.71,6.34,6.34,0,0,1,.2-1.36l.49-2H364.6l-1,4h-1.53c0-.09.09-.36.22-.83s.27-1.05.54-2.12l.91-3.67a1.83,1.83,0,0,0,.07-.45c0-.2-.07-.31-.21-.31-.3,0-.83.37-1.58,1.11l-.45-.35c1.44-1.34,2.52-2,3.25-2q.57,0,.57.75a17.53,17.53,0,0,1-.68,3.25h2.86l1-3.73h1.46l-1,3.58a29.65,29.65,0,0,0-.85,3.55c0,.26.1.4.3.4s.81-.45,1.69-1.35Z" transform="translate(-20.49 -36.71)" style="fill: #4d4d4d"/>
    <path d="M371.62,480.91l-.31-.41a8.52,8.52,0,0,1,1.93-1.5,3.41,3.41,0,0,1,1.44-.48.49.49,0,0,1,.32.09.31.31,0,0,1,.11.26,3.5,3.5,0,0,1-.16.79c-.16.57-.27,1-.33,1.36,1.63-1.66,2.89-2.5,3.75-2.5a.63.63,0,0,1,.51.19.81.81,0,0,1,.18.58,6.36,6.36,0,0,1-.31,1.47,10.21,10.21,0,0,1,2-1.73,3,3,0,0,1,1.35-.51.85.85,0,0,1,.66.25,1,1,0,0,1,.24.76,3.15,3.15,0,0,1-.1.73c-.07.27-.32,1.13-.75,2.56a18.58,18.58,0,0,0-.81,3.17c0,.23.09.35.29.35a.66.66,0,0,0,.37-.13,9.54,9.54,0,0,0,1.25-1.06l.33.37c-.14.11-.41.35-.81.71a9.8,9.8,0,0,1-1.12.93,2.14,2.14,0,0,1-1,.34.67.67,0,0,1-.54-.3,1.3,1.3,0,0,1-.24-.83,5.34,5.34,0,0,1,.15-1.16q.13-.66.84-3a12.24,12.24,0,0,0,.52-2.1c0-.23-.1-.35-.31-.35a1.53,1.53,0,0,0-.69.26,5.43,5.43,0,0,0-1.47,1.3,4.94,4.94,0,0,0-.72,1.69c-.46,1.69-.8,3.07-1,4.14h-1.45l1.53-6.27a5.81,5.81,0,0,0,.16-.78.37.37,0,0,0-.08-.25.31.31,0,0,0-.24-.09,1.88,1.88,0,0,0-.86.43,6,6,0,0,0-1.46,1.41,6.82,6.82,0,0,0-.76,2.08l-.79,3.47h-1.47l1.16-4.9c.34-1.41.51-2.18.51-2.3s-.06-.24-.18-.24S372.44,480.13,371.62,480.91Z" transform="translate(-20.49 -36.71)" style="fill: #4d4d4d"/>
  </g>
  <g>
    <path d="M49.58,182.34H49c0-.53,0-1,0-1.28a2.71,2.71,0,0,0-.6-2,2.1,2.1,0,0,0-1.51-.57,4.24,4.24,0,0,0-2.53,1,7.67,7.67,0,0,0-2.26,3.08,10.41,10.41,0,0,0-.94,4.31,5.28,5.28,0,0,0,.88,3.29,2.66,2.66,0,0,0,2.2,1.14c1.19,0,2.29-.71,3.29-2.15a.42.42,0,0,1,.31-.21.31.31,0,0,1,.23.08.28.28,0,0,1,.09.2c0,.19-.23.55-.68,1.09a5.55,5.55,0,0,1-1.72,1.35,4.39,4.39,0,0,1-2,.54,4.24,4.24,0,0,1-3.85-2.43,6.16,6.16,0,0,1-.58-2.78,10.3,10.3,0,0,1,4.11-7.91A5.54,5.54,0,0,1,48.12,178c.17,0,.87.28,2.11.71A12.84,12.84,0,0,0,49.58,182.34Z" transform="translate(-20.49 -36.71)" style="fill: #333"/>
    <path d="M55.14,181.55a2.12,2.12,0,0,1,1.68.8,3.43,3.43,0,0,1,.66,2.23,6,6,0,0,1-1.6,4.08,4.52,4.52,0,0,1-3.38,1.81,2.34,2.34,0,0,1-1.77-.71,2.76,2.76,0,0,1-.67-2,7,7,0,0,1,1.23-4A4.56,4.56,0,0,1,55.14,181.55Zm-.87.77c-.58,0-1.14.42-1.68,1.25a6.19,6.19,0,0,0-.82,3.44,3.84,3.84,0,0,0,.5,2.1,1.13,1.13,0,0,0,1,.56,2,2,0,0,0,1.57-1.06,6.2,6.2,0,0,0,.9-3.44,4.26,4.26,0,0,0-.42-2.19A1.2,1.2,0,0,0,54.27,182.32Z" transform="translate(-20.49 -36.71)" style="fill: #333"/>
    <path d="M61.21,183.35a4.41,4.41,0,0,1,3.05-1.77,1.32,1.32,0,0,1,1.19.64,3.11,3.11,0,0,1,.4,1.67,7.29,7.29,0,0,1-1.56,4.49,4.38,4.38,0,0,1-3.46,2.06,2,2,0,0,1-1.52-.57,1.93,1.93,0,0,1-.55-1.4,10.18,10.18,0,0,1,.28-2l1.21-5.42q.7-3.19,2.19-4.25a4.79,4.79,0,0,1,2.68-1.06,4.89,4.89,0,0,1,.89.1,20.73,20.73,0,0,0,2.56.37,1.53,1.53,0,0,0,.92-.54l.31.22a3.51,3.51,0,0,1-1.12,1.33,2.4,2.4,0,0,1-1.14.27,20.58,20.58,0,0,1-3-.4,7,7,0,0,0-1-.12.85.85,0,0,0-.78.49,10.16,10.16,0,0,0-.69,2.25Zm-1.09,5.15a1.25,1.25,0,0,0,.36.9,1.13,1.13,0,0,0,.81.37c.8,0,1.48-.62,2.06-1.86a8.32,8.32,0,0,0,.87-3.52,2.55,2.55,0,0,0-.25-1.15.78.78,0,0,0-.74-.52,2.1,2.1,0,0,0-1.26.68,5.58,5.58,0,0,0-1.3,2.25A8.56,8.56,0,0,0,60.12,188.5Z" transform="translate(-20.49 -36.71)" style="fill: #333"/>
    <path d="M70.05,185.28a6.08,6.08,0,0,1,2.12-.61,2.25,2.25,0,0,1,1.55.52,1.83,1.83,0,0,1,.59,1.43,3.41,3.41,0,0,1-1.43,2.73,4.89,4.89,0,0,1-3.13,1.14c-1.37,0-2-.42-2-1.28a14.33,14.33,0,0,1,.4-2l.92-3.67a1.83,1.83,0,0,0,.07-.45c0-.2-.07-.31-.22-.31-.3,0-.82.37-1.58,1.11l-.45-.35c1.44-1.34,2.52-2,3.25-2,.37,0,.56.25.56.75A14.91,14.91,0,0,1,70.05,185.28Zm-.76,3.62a.9.9,0,0,0,.23.66,1.23,1.23,0,0,0,.86.23,2.34,2.34,0,0,0,2.5-2.57,1.41,1.41,0,0,0-1.6-1.6A3.48,3.48,0,0,0,70,186,25.94,25.94,0,0,0,69.29,188.9Zm7.77-7.07h1.45l-1,3.57a28.5,28.5,0,0,0-.84,3.55c0,.26.09.4.28.4s.81-.45,1.7-1.34l.33.38c-1.36,1.43-2.38,2.15-3,2.15a.79.79,0,0,1-.54-.26.93.93,0,0,1-.25-.71,19.29,19.29,0,0,1,.72-3.41Z" transform="translate(-20.49 -36.71)" style="fill: #333"/>
    <path d="M80.06,183.91l-.31-.41a8.52,8.52,0,0,1,1.93-1.5,3.41,3.41,0,0,1,1.44-.48.5.5,0,0,1,.33.09.35.35,0,0,1,.11.26,3.73,3.73,0,0,1-.17.79c-.16.57-.27,1-.33,1.36,1.64-1.66,2.89-2.5,3.76-2.5a.66.66,0,0,1,.51.19.84.84,0,0,1,.17.58,5.86,5.86,0,0,1-.31,1.47,10,10,0,0,1,2-1.73,2.94,2.94,0,0,1,1.34-.51.87.87,0,0,1,.67.25,1.1,1.1,0,0,1,.23.76,3,3,0,0,1-.1.72c-.07.29-.32,1.14-.75,2.57a18.58,18.58,0,0,0-.81,3.17c0,.23.1.35.29.35a.7.7,0,0,0,.38-.13,9.49,9.49,0,0,0,1.24-1.06l.34.37c-.15.11-.42.35-.81.71a10.54,10.54,0,0,1-1.13.93,2.11,2.11,0,0,1-1,.34.69.69,0,0,1-.54-.3,1.3,1.3,0,0,1-.23-.83,5.27,5.27,0,0,1,.14-1.16c.09-.44.38-1.43.84-3a11.28,11.28,0,0,0,.52-2.1c0-.23-.1-.35-.3-.35a1.49,1.49,0,0,0-.69.26,5.48,5.48,0,0,0-1.48,1.3,5.14,5.14,0,0,0-.72,1.69c-.45,1.69-.8,3.07-1,4.14H84.17l1.53-6.27a5.81,5.81,0,0,0,.16-.78.33.33,0,0,0-.08-.25.29.29,0,0,0-.23-.09,1.84,1.84,0,0,0-.86.43,5.64,5.64,0,0,0-1.46,1.41,6.57,6.57,0,0,0-.76,2.08l-.79,3.47H80.2l1.16-4.89c.34-1.42.52-2.19.52-2.31s-.07-.24-.19-.24S80.88,183.13,80.06,183.91Z" transform="translate(-20.49 -36.71)" style="fill: #333"/>
    <path d="M99.73,181.82h1.46l-1,3.58a27.48,27.48,0,0,0-.85,3.56.4.4,0,0,0,.09.29.28.28,0,0,0,.21.11.86.86,0,0,0,.41-.16,11.85,11.85,0,0,0,1.28-1.19l.34.38c-1.38,1.43-2.39,2.15-3,2.15a.74.74,0,0,1-.56-.26,1,1,0,0,1-.23-.71,6.67,6.67,0,0,1,.22-1.42A9,9,0,0,1,95.85,190a3.15,3.15,0,0,1-1.55.52.69.69,0,0,1-.56-.23,1.12,1.12,0,0,1-.21-.75,4.46,4.46,0,0,1,.1-.86c.09-.43.31-1.3.67-2.6a18.36,18.36,0,0,0,.69-3c0-.19-.07-.29-.2-.29a1.15,1.15,0,0,0-.51.19,8.81,8.81,0,0,0-1.08.92l-.46-.36a12.19,12.19,0,0,1,2.1-1.61,2.65,2.65,0,0,1,1.17-.39.52.52,0,0,1,.4.18.87.87,0,0,1,.15.56,19.93,19.93,0,0,1-.74,3.48,23,23,0,0,0-.66,2.85.57.57,0,0,0,.14.37.43.43,0,0,0,.31.15,3,3,0,0,0,1.62-.95A4.41,4.41,0,0,0,98.62,186Z" transform="translate(-20.49 -36.71)" style="fill: #333"/>
    <path d="M107.84,187.6l.34.45c-1.68,1.6-3.11,2.39-4.31,2.39a1.3,1.3,0,0,1-1.11-.49,2.55,2.55,0,0,1-.39-1.58,8.3,8.3,0,0,1,1.34-4.37c1-1.64,2.19-2.47,3.57-2.47a1.55,1.55,0,0,1,1.12.37,1.32,1.32,0,0,1,.38,1,2.22,2.22,0,0,1-.46,1.31,5.34,5.34,0,0,1-1.65,1.34c-.4.23-1.24.63-2.54,1.22a6.65,6.65,0,0,0-.1,1.06,1.61,1.61,0,0,0,.24,1,.8.8,0,0,0,.67.29,2.17,2.17,0,0,0,.92-.24A12.91,12.91,0,0,0,107.84,187.6Zm-3.59-1.48a8.29,8.29,0,0,0,2.48-1.59,1.74,1.74,0,0,0,.57-1.18,1,1,0,0,0-.24-.7.74.74,0,0,0-.6-.27,1.17,1.17,0,0,0-.73.29,2.69,2.69,0,0,0-.81,1.15A10.06,10.06,0,0,0,104.25,186.12Z" transform="translate(-20.49 -36.71)" style="fill: #333"/>
  </g>
  <g>
    <path d="M317.57,38.9a4.57,4.57,0,0,1,2.33.6,4.05,4.05,0,0,1,1.62,1.71,5.64,5.64,0,0,1,.57,2.59,7.93,7.93,0,0,1-1,3.83,7.68,7.68,0,0,1-2.54,2.86,6,6,0,0,1-3.32,1,4.56,4.56,0,0,1-3.4-1.31,4.71,4.71,0,0,1-1.29-3.45,8.25,8.25,0,0,1,1-4,7.47,7.47,0,0,1,2.55-2.86A6.31,6.31,0,0,1,317.57,38.9Zm-.75.74a3.8,3.8,0,0,0-2.19.7,5,5,0,0,0-1.63,2.2,8.68,8.68,0,0,0-.64,3.46,5.37,5.37,0,0,0,1,3.49,3.05,3.05,0,0,0,2.48,1.22,3.51,3.51,0,0,0,2.1-.72,5.32,5.32,0,0,0,1.63-2.3,9.54,9.54,0,0,0,.64-3.59,5,5,0,0,0-1-3.28A3,3,0,0,0,316.82,39.64Z" transform="translate(-20.49 -36.71)"/>
    <path d="M325.5,44.35a4.39,4.39,0,0,1,3-1.77,1.33,1.33,0,0,1,1.2.64,3.2,3.2,0,0,1,.39,1.67,7.29,7.29,0,0,1-1.56,4.49,4.38,4.38,0,0,1-3.45,2.06,2,2,0,0,1-1.53-.57,2,2,0,0,1-.54-1.4,10,10,0,0,1,.27-2l1.21-5.42q.72-3.2,2.2-4.25a4.74,4.74,0,0,1,2.67-1.06,5,5,0,0,1,.9.1,20.42,20.42,0,0,0,2.55.37,1.51,1.51,0,0,0,.92-.54l.31.22A3.43,3.43,0,0,1,333,38.26a2.34,2.34,0,0,1-1.14.27,20.34,20.34,0,0,1-3-.4,6.92,6.92,0,0,0-1-.12.86.86,0,0,0-.78.49,9.78,9.78,0,0,0-.68,2.25Zm-1.1,5.15a1.25,1.25,0,0,0,.36.9,1.17,1.17,0,0,0,.81.37q1.2,0,2.07-1.86a8.44,8.44,0,0,0,.86-3.52,2.69,2.69,0,0,0-.24-1.15.79.79,0,0,0-.74-.52,2.12,2.12,0,0,0-1.27.68,5.7,5.7,0,0,0-1.3,2.25A8.82,8.82,0,0,0,324.4,49.5Z" transform="translate(-20.49 -36.71)"/>
    <path d="M331.39,45.1l-.4-.41A7.29,7.29,0,0,1,332.85,43a3.37,3.37,0,0,1,1.6-.53.57.57,0,0,1,.4.13A.47.47,0,0,1,335,43a3.15,3.15,0,0,1-.06.61c-.05.21-.19.71-.42,1.49a17.21,17.21,0,0,1,2.14-1.94,3.32,3.32,0,0,1,1.77-.63,1.08,1.08,0,0,1,.88.49,2.54,2.54,0,0,1,.36,1.49,8.16,8.16,0,0,1-1.55,4.72c-1,1.49-2.17,2.23-3.42,2.23a3.08,3.08,0,0,1-1.48-.4l-.87,3.39a1.76,1.76,0,0,0-.08.5.57.57,0,0,0,.28.54,5.69,5.69,0,0,0,1.86.42l-.14.52c-1.1-.09-2-.14-2.59-.14s-1.49.05-2.52.14l.13-.52a1.76,1.76,0,0,0,1.13-.43,2.51,2.51,0,0,0,.57-1.24l1.86-7.78a24,24,0,0,0,.52-2.42c0-.18-.08-.27-.25-.27S332.24,44.21,331.39,45.1Zm2.08,4.84a2.36,2.36,0,0,0,1.66.81q1.23,0,2.16-1.92a8.68,8.68,0,0,0,.92-3.74,1.3,1.3,0,0,0-.26-.89.88.88,0,0,0-.7-.3,1.83,1.83,0,0,0-1.1.48,7,7,0,0,0-1.46,1.48,6.23,6.23,0,0,0-.67,1.85Z" transform="translate(-20.49 -36.71)"/>
    <path d="M347.47,42.38l.68-.15-.77,2.6q-.47,1.55-.87,3.57a9.75,9.75,0,0,0-.23,1.41c0,.21.09.32.26.32a1.24,1.24,0,0,0,.52-.21,6.7,6.7,0,0,0,1.22-1l.33.4q-1.17,1.07-1.5,1.29a5.29,5.29,0,0,1-1.25.67,2.08,2.08,0,0,1-.76.14.6.6,0,0,1-.4-.12.45.45,0,0,1-.13-.36,1.75,1.75,0,0,1,.08-.42l.41-1.39A8.74,8.74,0,0,1,343,51a2.58,2.58,0,0,1-1.37.47,1.1,1.1,0,0,1-.92-.42,2.4,2.4,0,0,1-.43-1.47,6.24,6.24,0,0,1,.58-2.42,9,9,0,0,1,1.56-2.42,6.37,6.37,0,0,1,2.05-1.6,5,5,0,0,1,2.13-.39,5.12,5.12,0,0,1,.67,0ZM346.2,44a4.54,4.54,0,0,0-.93-.12,2.62,2.62,0,0,0-1.61.51,4.52,4.52,0,0,0-1.28,1.83,6.43,6.43,0,0,0-.59,2.63,1.63,1.63,0,0,0,.24,1,.71.71,0,0,0,.61.31,2.31,2.31,0,0,0,1.52-.76,4.55,4.55,0,0,0,1.19-2.2Z" transform="translate(-20.49 -36.71)"/>
    <path d="M352.05,44.35a4.41,4.41,0,0,1,3.05-1.77,1.34,1.34,0,0,1,1.2.64,3.2,3.2,0,0,1,.39,1.67,7.29,7.29,0,0,1-1.56,4.49,4.38,4.38,0,0,1-3.45,2.06,2,2,0,0,1-1.53-.57,2,2,0,0,1-.55-1.4,10.18,10.18,0,0,1,.28-2l1.21-5.42q.71-3.2,2.2-4.25A4.74,4.74,0,0,1,356,36.78a4.89,4.89,0,0,1,.89.1,20.73,20.73,0,0,0,2.56.37,1.53,1.53,0,0,0,.92-.54l.31.22a3.51,3.51,0,0,1-1.12,1.33,2.37,2.37,0,0,1-1.14.27,20.34,20.34,0,0,1-3-.4,7.08,7.08,0,0,0-1-.12.85.85,0,0,0-.78.49,10.16,10.16,0,0,0-.69,2.25ZM351,49.5a1.25,1.25,0,0,0,.36.9,1.13,1.13,0,0,0,.81.37c.8,0,1.49-.62,2.06-1.86a8.32,8.32,0,0,0,.87-3.52,2.55,2.55,0,0,0-.25-1.15.78.78,0,0,0-.73-.52,2.09,2.09,0,0,0-1.27.68,5.58,5.58,0,0,0-1.3,2.25A8.56,8.56,0,0,0,351,49.5Z" transform="translate(-20.49 -36.71)"/>
    <path d="M362.88,42.55a2.09,2.09,0,0,1,1.67.8,3.37,3.37,0,0,1,.67,2.23,6,6,0,0,1-1.6,4.08,4.52,4.52,0,0,1-3.38,1.81,2.34,2.34,0,0,1-1.77-.71,2.76,2.76,0,0,1-.67-2,7,7,0,0,1,1.23-4A4.56,4.56,0,0,1,362.88,42.55Zm-.87.77c-.58,0-1.14.42-1.69,1.25a6.27,6.27,0,0,0-.81,3.44,3.84,3.84,0,0,0,.5,2.1,1.13,1.13,0,0,0,1,.56,2,2,0,0,0,1.57-1.06,6.2,6.2,0,0,0,.9-3.44,4.26,4.26,0,0,0-.42-2.19A1.2,1.2,0,0,0,362,43.32Z" transform="translate(-20.49 -36.71)"/>
    <path d="M366.47,44.91l-.31-.41a8.52,8.52,0,0,1,1.93-1.5,3.41,3.41,0,0,1,1.44-.48.5.5,0,0,1,.33.09.35.35,0,0,1,.11.26,3.73,3.73,0,0,1-.17.79c-.15.57-.26,1-.33,1.36,1.64-1.66,2.89-2.5,3.76-2.5a.66.66,0,0,1,.51.19.84.84,0,0,1,.17.58,6.19,6.19,0,0,1-.3,1.47,9.94,9.94,0,0,1,2-1.73,2.94,2.94,0,0,1,1.34-.51.87.87,0,0,1,.67.25,1,1,0,0,1,.23.76,3,3,0,0,1-.1.72c-.07.29-.32,1.14-.75,2.57a18.58,18.58,0,0,0-.81,3.17c0,.23.1.35.29.35a.7.7,0,0,0,.38-.13,9.49,9.49,0,0,0,1.24-1.06l.34.37c-.14.11-.41.35-.81.71a9.6,9.6,0,0,1-1.13.93,2.11,2.11,0,0,1-1,.34.69.69,0,0,1-.55-.3,1.36,1.36,0,0,1-.23-.83,6,6,0,0,1,.14-1.16q.15-.66.84-3a11.28,11.28,0,0,0,.52-2.1c0-.23-.1-.35-.3-.35a1.53,1.53,0,0,0-.69.26,5.48,5.48,0,0,0-1.48,1.3,5,5,0,0,0-.71,1.69c-.46,1.69-.8,3.07-1,4.14h-1.46l1.53-6.27a6.91,6.91,0,0,0,.17-.78.33.33,0,0,0-.09-.25.29.29,0,0,0-.23-.09,1.84,1.84,0,0,0-.86.43,5.81,5.81,0,0,0-1.46,1.41,6.57,6.57,0,0,0-.76,2.08l-.79,3.47h-1.47l1.15-4.89c.35-1.42.52-2.19.52-2.31s-.06-.24-.19-.24S367.29,44.13,366.47,44.91Z" transform="translate(-20.49 -36.71)"/>
    <path d="M379,44.91l-.45-.36c1.44-1.33,2.52-2,3.25-2,.37,0,.56.25.56.74a10,10,0,0,1-.35,2l-.37,1.54a1.49,1.49,0,0,0-.06.35c0,.26.18.39.53.39a2.68,2.68,0,0,0,1.41-.66,4,4,0,0,0,1.25-1.4,12.77,12.77,0,0,0,.77-2.64H387l-1,3.58a27.55,27.55,0,0,0-.85,3.55c0,.26.09.4.29.4s.81-.45,1.69-1.34l.34.38c-1.36,1.43-2.38,2.15-3,2.15a.73.73,0,0,1-.54-.26,1,1,0,0,1-.25-.71,5.94,5.94,0,0,1,.21-1.37l.57-2.36c-1.52,1.26-2.69,1.9-3.52,1.9q-1,0-1-.9a15.86,15.86,0,0,1,.56-2.55,7.29,7.29,0,0,0,.25-1.2c0-.19-.08-.29-.23-.29S379.76,44.17,379,44.91Z" transform="translate(-20.49 -36.71)"/>
    <path d="M395.2,42.82h1.46l-1,3.58a28.54,28.54,0,0,0-.86,3.56.4.4,0,0,0,.1.29.27.27,0,0,0,.2.11.79.79,0,0,0,.41-.16A10.16,10.16,0,0,0,396.83,49l.34.38c-1.37,1.43-2.38,2.15-3,2.15a.73.73,0,0,1-.56-.26,1,1,0,0,1-.23-.71,6.08,6.08,0,0,1,.22-1.42A9.14,9.14,0,0,1,391.32,51a3.18,3.18,0,0,1-1.55.52.68.68,0,0,1-.56-.23,1.12,1.12,0,0,1-.21-.75,4.41,4.41,0,0,1,.09-.86c.09-.43.32-1.3.68-2.6a18.36,18.36,0,0,0,.69-3c0-.19-.07-.29-.21-.29a1.17,1.17,0,0,0-.5.19,8.66,8.66,0,0,0-1.09.92l-.45-.36a12.19,12.19,0,0,1,2.1-1.61,2.65,2.65,0,0,1,1.16-.39.49.49,0,0,1,.4.18.87.87,0,0,1,.15.56,19.51,19.51,0,0,1-.73,3.48,23,23,0,0,0-.66,2.85.57.57,0,0,0,.14.37.4.4,0,0,0,.3.15,3,3,0,0,0,1.63-1A4.46,4.46,0,0,0,394.08,47Z" transform="translate(-20.49 -36.71)"/>
    <path d="M401,46.35a8.55,8.55,0,0,0,1.3-1.35,12.35,12.35,0,0,1,2.26-2.34,2.8,2.8,0,0,1,1.54-.53c.58,0,.87.23.87.68s-.26.66-.78.66h-.29l-.34,0a2.4,2.4,0,0,0-1.2.35,7.25,7.25,0,0,0-1.54,1.4,10.44,10.44,0,0,1-1.34,1.33,5.29,5.29,0,0,1,1.91,1.32,18,18,0,0,1,1.59,3.3,9.44,9.44,0,0,0,1.46,2.64,2.24,2.24,0,0,0,1.68.76,1.52,1.52,0,0,0,.78-.21c.23-.13.35-.28.35-.45a1.74,1.74,0,0,0-.11-.43A1.23,1.23,0,0,1,409,53a.57.57,0,0,1,.18-.41.54.54,0,0,1,.43-.19.61.61,0,0,1,.5.23.9.9,0,0,1,.2.61,1.68,1.68,0,0,1-.69,1.33,2.71,2.71,0,0,1-1.75.55A4,4,0,0,1,405.11,54a13,13,0,0,1-2.52-4.82,6.3,6.3,0,0,0-.68-1.53,2.71,2.71,0,0,0-1-.86l-1,4.43h-1.55l.72-2.76A38,38,0,0,0,400,44c0-.16-.07-.24-.22-.24s-.83.42-1.62,1.25l-.32-.36a7.23,7.23,0,0,1,2-1.61,3.84,3.84,0,0,1,1.44-.5c.27,0,.41.11.41.32a6.8,6.8,0,0,1-.13.7Z" transform="translate(-20.49 -36.71)"/>
  </g>
</svg>
