<svg width="80" height="80" viewBox="0 0 141 141" xmlns="http://www.w3.org/2000/svg"><g fill="none" fill-rule="evenodd"><path d="M131.7 86c0 21-16.8 37.7-37.6 37.7H46.7C25.8 123.7 9 107 9 86V38.7C9 17.8 25.8 1 46.6 1H94c21 0 37.7 16.8 37.7 37.6V86z" fill="#F9EC31"/><path d="M57.8 108c0-.3 2.4-13.7-1.6-22-2.6-5.3-5.6-6.3-10.3-8-2.5-.7-5.2-1.7-8.2-3.3-5.4-3-8.6-7.8-11.7-12.6-.3.3-.8.5-1.3.5-1.7 0-2.5-1.6-3.2-4.2-.2 0-.5 0-.7-.2-2-.3-3.5-1.7-4.3-3.7-1-2.8-.7-6.6 1-9 2.4-3.8 7.3-5.7 10.8-5.8h.5c2.7 0 4.8 1 6.6 1.7 1 .4 2 1 3 1h3c1-.2 1.7-.4 2.7-.4.7 0 1.4 0 2 .2 1 .2 2 .4 3 .4h1.3l2-.7 3.2-.8 1.5-.3c1.2 0 2.3.3 3.3.7.2-.4.4-.8.7-1-4.6-3-6.5-5.4-5.8-7.7 1-3 5-3.2 8-3.2 2 0 4.2.2 6.8.5v-.3c.6-4 .7-11.6.7-11.7v-1.2l1-.5c.3 0 3.8-1.6 10.8-1.6H84c8.3.3 13.7 2 14 2 0 0 5.6 1.7 12.6 6 7 4 9.3 8 9.4 8l.6 1-.6 1-6 10v.5c10.7 5.2 11.3 8.3 10.7 10.3-.8 2.7-4.7 3-7.7 3 2 4.2 2 8.2.4 11.6l-.3.5c-.7 1.8-1 2.2-.6 4l1 3.3c.5 1.3 1 2.5 1.3 4l.2.8c1.5 5.6 1.8 6.8.5 7.8-.3.2-8 6-26.3 8C76 98.7 61 109.7 60.8 109.8l-3.8 2.8.8-4.6z" fill="#FFF"/><g transform="translate(17 16)"><path d="M74 22.5c8 2.3 15 5 20 7.3.3-1 .8-2.5 1.5-3.8 1.8-3.7 6-10.3 6-10.3s-2.3-3.4-9-7.5c-6.7-4-12-5.7-12-5.7S75 1 67 .5C59.4.6 55.7 2 55.7 2s0 7.8-.7 12c-.2 1.3-.5 2.7-1 3.8 5.6.8 12.6 2.4 20 4.7z" fill="#3E295E"/><ellipse fill="#3E295E" transform="rotate(-73.357 72.94 27.063)" cx="72.9" cy="27.1" rx="6.6" ry="34.4"/><ellipse fill="#3E295E" transform="rotate(-73.357 72.472 27.945)" cx="72.5" cy="27.9" rx="3.7" ry="25"/><path d="M50 21.2c-.4 0-.8.4-1.2.6-2.3 1.4-3.4 3.8-4.8 6-1.7-1-3.3-1.4-5-1-2 .2-3.5 1-5.2 1.3-1.7.5-3.5.2-5.2 0-2.6-.6-5 .4-7.5 0-2.7-.3-5.6-3-9.6-2.7-3.4.2-7.5 2-9.5 5-2 2.8-1.8 9 2.2 10 1.8.4 3 0 4.3 1.6 4 5.4 7 11.8 13.2 15 9 4.8 15 3.3 19.2 12.2 4.2 9 1.7 23 1.7 23S58 80.8 76 78.6c18-2 25.4-7.7 25.4-7.7.4-.4-1.4-6.3-1.5-7-.7-2.4-1.8-4.7-2.4-7.2-.6-2.5 0-3.4 1-5.6 2-3.7 1-7.8-1-11.3-2-3.3-4.7-6-8.2-7.4-6-2.4-8.3-2.8-8.3-2.8s-1-7-12.8-8.6c-4.4-.6-8.8-1.5-13.3-1-1.7 0-3.4.3-5 1z" fill="#3E295E"/><path d="M5.7 39.3s1 5.3 2 5.3 1.5-5.3 1.5-5.3H5.7z" fill="#3E295E"/><path d="M68.4 68.4c5.3-2.4 10.8-4.7 15.8-7.7 4-2.2 8.6-5 10.7-9.2C99 43 89.4 36.2 82 34.8c-1.2-.2-10.4-1.4-10.8.7.3-2 2.6-3 3.7-4.6 2-2.6-.6-3-2.5-4-3.4-1.3-7-2.4-10.6-2.5-4 0-7 .4-10 3.2-.4.5-1 1.2-1.2 2-.3 2 3.8 2.6 5 1.8l2-1c2.2-1 4.5-1.7 6.8-2 2-.3 4-.4 6 .3.6 0 1.2.3 1.7.7l.4.3h-3.3s-2 3-6.7 4.5C58 35.6 52 33 52 33s-4.7-2.2-8.8-1.7c-4 .6-5 0-5 0v2s-2-1.3-4.3-2c-2.4-.6-5.7-2.2-9.8-1.5-4.2.7-5 .2-8.8-1.5-3.8-1.6-8-1.2-10.3 3-2.2 4.2.8 7 .8 7h5.6c.3-1.6 1-4.7 2.5-5.5 2-1 1 2.5 1.3 4 0 1 .2 1.6.4 2.2 2.7 1 5.4 2.6 9 2 4.6-.6 9.4-3.7 13.7-1.3h.2c.4-1 1.4-3 2.5-3.2 1.4-.4.2 2 0 3l-.3 1.5 1.4.7c.4-1 1-2.8 1.8-3.2 1.2-.6.4 1.8.5 3v1.3c2.2 1 4.3 1.4 6.5 1 4.2-.6 4.8-2.4 11 .2 2 .7 4 2.4 6 2.7 1 .2 4.7 0 4.5-2 0 1 .7 1.2.3 2.2-.4.6-1.2 1-2 1.3-2.2.8-4-.5-6-1.3s-4.6-2.2-7-2.5c-3-.3-7 1.7-11 1-4-.6-7.2-5.4-12.7-4.8-5.5.7-7.5 3.3-12.3 2l-2-.6c0 .2 0 .4-.2.7 0 1.2.6 4-1 3-1.3-.5-1.8-3.6-2-5-1.8-.8-3.4-1.5-5.7-1.5h-1c1.3 2.3 4.8 7.8 9 11.6C24 55.8 29 56 29 56l-3-2.5c-1.5-1.2-3.7-5-3.7-5s3.7 3.3 9 6c5.3 3 11 5.8 11 5.8l-2.7-.5c-2-.4-5.8-1.8-5.8-1.8s5 4.4 10.2 7.7c5.2 3.3 14.4 6.8 14.4 6.8s2-.6 10-4zM11.2 31c-1.7.5-3.3.4-3.4-.2-.2-.7 1-1.6 2.7-2.2 1.7-.5 3.2-.4 3.4.3 0 .5-1 1.5-2.8 2z" fill="#F9EC31"/><path d="M57 15.8c-.2.2-.2.3-.2.5C62 17.6 68 19 74 21c6.7 2 13 4 18.5 6.2 0 0 0-.3.2-.5-5-2.3-11.2-7-18-9-6.5-2-12.5-1-17.8-2zm2 15.8s1.8 1.5 4.2 1c2.5-.6 4.3-2.4 4.3-2.4s-1.4-.2-3.2 0c0 .2 0 .5-.3.8-.3.6-1 1-1 1l-.3-1v-.7c-2 .4-3.7 1.3-3.7 1.3zM95 57s-4.3 4-14.5 8.7c-11 5-22.5 9-33.6 13.7l-.7 6s8.3-5 20.4-7.6C78.7 75 87 73.4 91 72.5c4-.8 7-2.6 7-2.6l-3-13z" fill="#FFF"/><path d="M84.2 60.7c4-2.2 8.6-5 10.7-9.2C99 43 89.4 36.2 82 34.8c-1.2-.2-10.4-1.4-10.8.7.3-2 2.6-3 3.7-4.6 2-2.6-.6-3-2.5-4-3.4-1.3-7-2.4-10.6-2.5-4 0-7 .4-10 3.2-.4.5-1 1.2-1.2 2-.3 2 3.8 2.6 5 1.8l2-1c2.2-1 4.5-1.7 6.8-2 2-.3 4-.4 6 .3.6 0 1.2.3 1.7.7l.4.3h-3.3s-2 3-6.7 4.5C58 35.6 52 33 52 33s-4.7-2.2-8.8-1.7c-4 .6-5 0-5 0v2s-2-1.3-4.3-2c-2.4-.6-5.7-2.2-9.8-1.5-4.2.7-5 .2-8.8-1.5-3.8-1.6-8-1.2-10.3 3-2.2 4.2.8 7 .8 7h5.6c.3-1.6 1-4.7 2.5-5.5 2-1 1 2.5 1.3 4 0 1 .2 1.6.4 2.2 2.7 1 5.4 2.6 9 2 4.6-.6 9.4-3.7 13.7-1.3h.2c.4-1 1.4-3 2.5-3.2 1.4-.4.2 2 0 3l-.3 1.5 1.4.7c.4-1 1-2.8 1.8-3.2 1.2-.6.4 1.8.5 3v1.3c2.2 1 4.3 1.4 6.5 1 4.2-.6 4.8-2.4 11 .2 2 .7 4 2.4 6 2.7 1 0 2.2 0 3-.3 1.5-.7.7-1.7-.6-1.6.4-.7 1.2-1 2-1 2.8-.3 3.7 3.5 4.6 5.4 1.4 3 1 6.2-.4 9-4.5 8.6-18 14.3-18 14.3s2-.6 10-4c5.3-2.5 10.8-4.8 15.8-7.8zM11.2 31c-1.7.5-3.3.4-3.4-.2-.2-.7 1-1.6 2.7-2.2 1.7-.5 3.2-.4 3.4.3 0 .5-1 1.5-2.8 2z" fill="#439A46"/><path d="M66.2 70c-4.6-2-10.5-6-10.7-12.5 0-5.5.3-16.2.4-19 1.5-.8 2.5-3 2.5-5.4 0-3-2-5.5-4-5.4-2.2 0-4 2.6-3.8 5.7 0 3 2 5.4 4 5.4-.2 3-.7 14-.5 19.3.4 6 6.3 12.8 14.8 14 8.5 1.3 24.2 1 24.2 1l1.4-1s-23.8.2-28.4-2zM52 33.3c-.2-2 1-3.8 2.3-4 1.3 0 2.5 1.8 2.6 4 0 2-1.2 3.7-2.5 3.7C53 37 52 35.2 52 33z" fill="#3E295E"/></g></g></svg>