<svg xmlns="http://www.w3.org/2000/svg"><style>.st0{fill:#f6e767}</style><path class="st0" d="M24.7 6.1L14.7.3c-.9-.5-2.3-.5-3.2 0l-10 5.8C.7 6.7 0 7.9 0 8.9v11.5c0 1 .7 2.2 1.6 2.7l10 5.8c.9.5 2.3.5 3.2 0l10-5.8c.9-.5 1.6-1.7 1.6-2.7V8.9c-.1-1-.8-2.2-1.7-2.8zM22 12.4h-1v-1.8c0-1.3-1-1.8-3-1.8h-.1c-4.8 0-4.4-1.8-4.5-2.5h-.1c-.1.7.3 2.5-4.5 2.5h-.1c-2 0-3 .4-3 1.8V12L22 16.7v2c0 1.9-.9 3-4.1 3h-.2c-2.4 0-4 .5-4 2.5h-1c0-1.9-1.5-2.5-4-2.5-3.1 0-4.1-1.1-4.1-3V17h1v1.8c0 1.3 1 1.8 3 1.8h.1c4.8 0 4.4 1.8 4.5 2.5h.1c.1-.7-.3-2.5 4.5-2.5h.2c2 0 3-.4 3-1.8v-1L4.6 13v-2.3c0-1.9.9-3 4.1-3h.2c2.5 0 4-.5 4-2.5h1c0 1.9 1.5 2.5 4 2.5h.1c3.1 0 4.1 1.1 4.1 3l-.1 1.7z"/></svg>
