<svg xmlns="http://www.w3.org/2000/svg" fill-rule="evenodd" stroke-miterlimit="1.41421" viewBox="0 0 441 132" clip-rule="evenodd" stroke-linejoin="round">
    <path fill="#007aff" fill-rule="nonzero" d="M0 19.167l20.167-3.334v26.334h31V59h-31v35.5c0 7 1.111 12 3.333 15 2.222 3 6 4.5 11.333 4.5 3.667 0 6.917-.389 9.75-1.166 2.834-.778 5.084-1.5 6.75-2.167l3.334 16c-2.334 1-5.389 2.028-9.167 3.083-3.778 1.056-8.222 1.584-13.333 1.584-6.223 0-11.417-.834-15.584-2.5-4.166-1.667-7.472-4.084-9.916-7.25-2.445-3.167-4.167-7-5.167-11.5S0 100.445 0 94.667v-75.5z"/>
    <path fill="#007aff" fill-rule="nonzero" d="M142.167 126.667c-3.889 1-8.945 2.028-15.167 3.083-6.222 1.056-13.055 1.584-20.5 1.584-7 0-12.861-1-17.583-3-4.722-2-8.5-4.778-11.334-8.334-2.833-3.555-4.861-7.805-6.083-12.75-1.222-4.944-1.833-10.361-1.833-16.25V42.167h20.167v45.667c0 9.333 1.361 16 4.083 20 2.722 4 7.472 6 14.25 6 2.444 0 5.028-.112 7.75-.334 2.722-.222 4.75-.5 6.083-.833v-70.5h20.167v84.5z"/>
    <path fill="#007aff" fill-rule="nonzero" d="M167.834 129.334V3.333L188 0v43.167c2.223-.778 4.806-1.445 7.75-2 2.945-.556 5.862-.834 8.75-.834 7 0 12.806.973 17.417 2.917 4.611 1.945 8.306 4.667 11.083 8.167 2.778 3.5 4.75 7.694 5.917 12.583 1.167 4.889 1.75 10.333 1.75 16.333v49.001H220.5V83.5c0-4.667-.305-8.639-.916-11.917-.611-3.277-1.611-5.944-3-8-1.389-2.055-3.25-3.555-5.584-4.5-2.333-.944-5.222-1.416-8.666-1.416-2.667 0-5.389.278-8.167.833-2.778.556-4.833 1.056-6.167 1.5v69.334h-20.166z"/>
    <path fill="#007aff" fill-rule="nonzero" d="M336.334 126.667c-3.889 1-8.944 2.028-15.167 3.083-6.222 1.056-13.055 1.584-20.5 1.584-7 0-12.861-1-17.583-3-4.722-2-8.5-4.778-11.333-8.334-2.834-3.555-4.862-7.805-6.084-12.75-1.222-4.944-1.833-10.361-1.833-16.25V42.167h20.167v45.667c0 9.333 1.361 16 4.083 20 2.722 4 7.472 6 14.25 6 2.444 0 5.028-.112 7.75-.334 2.722-.222 4.75-.5 6.083-.833v-70.5h20.167v84.5z"/>
    <path fill="#007aff" fill-rule="nonzero" d="M419.834 85.5c0-8.555-1.694-15.333-5.083-20.333-3.389-5-8.75-7.5-16.084-7.5-3.333 0-6.472.5-9.416 1.5-2.945 1-5.306 2.111-7.084 3.333v50.167c1.445.333 3.306.639 5.584.917 2.278.277 5.028.416 8.25.416 7.444 0 13.278-2.528 17.5-7.583 4.222-5.056 6.333-12.028 6.333-20.917zm20.667.334c0 7-1.028 13.305-3.083 18.916-2.056 5.611-5 10.417-8.834 14.417-3.833 4-8.472 7.055-13.917 9.167-5.444 2.111-11.611 3.166-18.5 3.166-6.666 0-13.027-.5-19.083-1.5-6.055-1-11.083-2.111-15.083-3.333V3.333L382.167 0v45.167c2.334-1.222 5.195-2.334 8.584-3.334 3.389-1 7.139-1.5 11.25-1.5 6.111 0 11.583 1.084 16.417 3.25 4.833 2.167 8.861 5.25 12.083 9.25 3.222 4 5.694 8.806 7.417 14.417 1.722 5.611 2.583 11.806 2.583 18.584z"/>
</svg>