<svg version="1.1" id="vue-logo" 
    xmlns="http://www.w3.org/2000/svg" 
    xmlns:xlink="http://www.w3.org/1999/xlink"
    viewBox="0 0 250 250">
  <g>
	  <path fill="#42B783" d="M113.439,131.79c1.088-1.682,1.856-2.764,2.516-3.908c14.029-24.335,28.119-48.635,42.033-73.035
		  c6.409-11.238,13.394-22.155,19.071-33.806c14.138,0,28.277,0,43.266,0c-35.671,61.793-71.062,123.103-106.823,185.053
		  C77.851,144.344,42.481,83.08,6.663,21.041c14.885,0,29.081,0,43.278,0"/>
	  <path fill="#35495E" d="M49.941,20.821c11.985-0.046,23.973,0.236,35.956,0c2.735-0.054,3.742,1.317,4.86,3.274
		  c7.408,12.97,14.876,25.907,22.703,39.512c4.664-8.035,9.036-15.548,13.389-23.072c3.243-5.607,6.54-11.186,9.646-16.868
		  c1.073-1.963,2.233-2.66,4.608-2.625c11.984,0.179,23.971-0.046,35.957,0c-5.677,11.652-12.663,22.568-19.071,33.806
		  c-13.914,24.4-28.004,48.701-42.033,73.035c-0.66,1.144-1.428,2.225-2.516,3.908"/>
  </g>
</svg>
