<svg width="340" height="72" xmlns="http://www.w3.org/2000/svg"><g fill="none" fill-rule="evenodd"><path d="M270.815 45.403c-2.273 1.925-5.714 2.887-10.292 2.887-9.308 0-13.947-4.19-13.947-12.538V15.797h3.103v19.955c0 6.455 3.625 9.682 10.844 9.682 7.25 0 10.845-3.165 10.845-9.496V15.797h3.103v20.079c0 4.345-1.229 7.51-3.656 9.527zm30.6-.031c-2.12 2.421-5.131 3.6-9.033 3.6-3.81 0-6.82-1.241-8.97-3.755v10.738h-3.104v-31.19h3.103v3.228c2.151-2.514 5.131-3.755 8.94-3.755 3.84 0 6.852 1.18 9.033 3.507 2.028 2.203 3.041 5.152 3.041 8.783 0 3.693-1.013 6.641-3.01 8.844zm-8.787-18.248c-2.826 0-5.07.87-6.728 2.576-1.66 1.738-2.489 3.972-2.489 6.703 0 6.425 3.042 9.652 9.156 9.652 2.826 0 5.007-.93 6.574-2.762 1.475-1.707 2.212-3.941 2.212-6.734 0-2.856-.768-5.121-2.335-6.859-1.536-1.707-3.686-2.576-6.39-2.576z" fill="#64DD17"/><path d="M3.472 25.572c0 .9.307 1.645.952 2.266.584.59 1.321.9 2.212.9h8.356c.922 0 1.72.155 2.427.465.707.31 1.383.776 2.059 1.46.676.682 1.137 1.365 1.413 2.078.277.714.43 1.552.43 2.483v6.207c0 .962-.123 1.769-.4 2.483-.276.714-.737 1.396-1.382 2.08-.645.65-1.352 1.147-2.058 1.427-.707.279-1.506.434-2.427.434H6.39c-.921 0-1.72-.155-2.427-.434-.706-.28-1.382-.745-2.058-1.397C1.26 45.372.799 44.69.522 43.976c-.276-.714-.4-1.552-.4-2.483a1.6 1.6 0 0 1 .462-1.148 1.52 1.52 0 0 1 1.136-.466c.43 0 .8.155 1.076.466.276.31.43.683.43 1.148 0 .9.307 1.645.952 2.266.615.62 1.413.962 2.335.962h8.356c.953 0 1.72-.31 2.335-.962a3.18 3.18 0 0 0 .953-2.297v-6.238c0-.9-.307-1.645-.953-2.296-.338-.342-.676-.59-1.013-.745-.338-.155-.738-.217-1.199-.217H6.605c-.921 0-1.72-.156-2.427-.435-.706-.28-1.382-.745-2.058-1.428-.645-.651-1.106-1.365-1.383-2.079-.276-.714-.4-1.552-.4-2.483v-5.958c0-.745.155-1.49.492-2.173.338-.682.738-1.334 1.26-1.862a5.878 5.878 0 0 1 1.751-1.303c.645-.31 1.29-.466 1.936-.466h9.032c.922 0 1.72.155 2.427.435.707.28 1.383.745 2.058 1.427.676.683 1.106 1.366 1.383 2.08.276.713.4 1.551.4 2.482 0 .435-.154.838-.461 1.149a1.52 1.52 0 0 1-1.137.465c-.43 0-.799-.155-1.075-.465a1.657 1.657 0 0 1-.43-1.149c0-.9-.308-1.644-.953-2.265-.645-.652-1.413-.993-2.243-.993H6.76c-.922 0-1.69.31-2.335.93-.645.622-.952 1.397-.952 2.297v5.4zm45.253 10.335c0 .434-.153.807-.43 1.117-.276.31-.645.435-1.137.435H32.012v3.786c0 .9.308 1.645.922 2.265.615.621 1.352.931 2.243.931h10.015c.43 0 .83.156 1.137.435.307.31.46.652.46 1.086 0 .435-.153.807-.46 1.117a1.52 1.52 0 0 1-1.137.466H35.177c-.891 0-1.69-.155-2.458-.466-.768-.31-1.444-.745-1.997-1.334a6.03 6.03 0 0 1-1.32-2.017c-.308-.776-.462-1.614-.462-2.545V29.917c0-.745.154-1.49.492-2.172.338-.683.737-1.304 1.26-1.862a6.168 6.168 0 0 1 1.72-1.304c.645-.31 1.29-.465 1.935-.465h8.357a5.21 5.21 0 0 1 2.212.496 8.178 8.178 0 0 1 1.935 1.304 6.421 6.421 0 0 1 1.352 1.893c.338.714.522 1.459.522 2.234v5.866zm-16.682-1.552h13.58v-4.314c0-.31-.093-.651-.246-.993a3.94 3.94 0 0 0-.646-.9 3.13 3.13 0 0 0-.921-.651 2.46 2.46 0 0 0-1.045-.249H34.9c-.338 0-.676.093-1.044.249a3.13 3.13 0 0 0-.922.651c-.276.28-.491.59-.645.9a1.981 1.981 0 0 0-.246.993v4.314zm31.46-7.169c-.922 0-1.629.217-2.151.62a5.237 5.237 0 0 0-1.26 1.366c-.338.559-.583 1.21-.737 1.956v14.896c0 .435-.154.807-.43 1.117a1.39 1.39 0 0 1-1.075.466c-.43 0-.83-.155-1.137-.466a1.552 1.552 0 0 1-.46-1.148v-20.11c0-.435.153-.838.49-1.149.339-.31.707-.465 1.137-.465.4 0 .738.155 1.045.497.307.34.43.682.43 1.024v.279c.184-.186.43-.403.737-.652a5.683 5.683 0 0 1 1.014-.651 6.369 6.369 0 0 1 1.23-.497 3.93 3.93 0 0 1 1.32-.217h4.086c.43 0 .83.155 1.137.465.307.31.46.683.46 1.117 0 .466-.153.807-.46 1.118a1.623 1.623 0 0 1-1.137.434h-4.24zM87.65 46.707c-.153.341-.369.59-.645.714a2.225 2.225 0 0 1-.922.186 2.43 2.43 0 0 1-1.044-.217c-.307-.156-.553-.373-.707-.683l-8.694-20.048a1.857 1.857 0 0 1-.154-.714c0-.404.123-.776.4-1.117a1.262 1.262 0 0 1 1.044-.497c.307 0 .615.093.891.248.277.155.492.404.645.714l7.466 17.224 7.465-17.224c.154-.31.369-.559.645-.714.277-.155.584-.248.891-.248.43 0 .8.155 1.045.497.276.341.4.713.4 1.117 0 .248-.062.496-.154.714L87.65 46.707zm35.361-10.8c0 .434-.153.807-.43 1.117-.276.31-.645.435-1.137.435h-15.146v3.786c0 .9.308 1.645.922 2.265.615.621 1.352.931 2.243.931h10.015c.43 0 .83.156 1.137.435.307.31.46.652.46 1.086 0 .435-.153.807-.46 1.117a1.52 1.52 0 0 1-1.137.466h-10.015c-.891 0-1.69-.155-2.458-.466-.768-.31-1.444-.745-1.997-1.334a6.03 6.03 0 0 1-1.32-2.017c-.308-.776-.462-1.614-.462-2.545V29.917c0-.745.154-1.49.492-2.172.338-.683.737-1.304 1.26-1.862a6.168 6.168 0 0 1 1.72-1.304c.645-.31 1.29-.465 1.935-.465h8.357a5.21 5.21 0 0 1 2.212.496 8.178 8.178 0 0 1 1.935 1.304 6.421 6.421 0 0 1 1.352 1.893c.338.714.522 1.459.522 2.234v5.866zm-16.713-1.552h13.58v-4.314c0-.31-.093-.651-.246-.993a3.94 3.94 0 0 0-.645-.9 3.13 3.13 0 0 0-.922-.651 2.46 2.46 0 0 0-1.045-.249h-7.864c-.338 0-.676.093-1.045.249a3.13 3.13 0 0 0-.922.651c-.276.28-.491.59-.645.9a1.981 1.981 0 0 0-.246.993v4.314zm31.46-7.169c-.922 0-1.628.217-2.15.62a5.237 5.237 0 0 0-1.26 1.366c-.338.559-.584 1.21-.738 1.956v14.896c0 .435-.153.807-.43 1.117-.276.31-.645.466-1.075.466-.43 0-.83-.155-1.137-.466a1.552 1.552 0 0 1-.46-1.148v-20.11c0-.435.153-.838.491-1.149.338-.31.707-.465 1.137-.465.4 0 .737.155 1.044.497.308.34.43.682.43 1.024v.279c.185-.186.43-.403.738-.652a5.683 5.683 0 0 1 1.014-.651 6.369 6.369 0 0 1 1.228-.497 3.93 3.93 0 0 1 1.322-.217h4.024c.43 0 .83.155 1.137.465.307.31.46.683.46 1.117 0 .466-.153.807-.46 1.118a1.623 1.623 0 0 1-1.137.434h-4.178zm16.774-1.614c0 .9.307 1.645.953 2.266.583.59 1.32.9 2.212.9h8.356c.922 0 1.72.155 2.427.465.707.31 1.383.776 2.058 1.46.676.682 1.137 1.365 1.414 2.078.276.714.43 1.552.43 2.483v6.207c0 .962-.123 1.769-.4 2.483-.276.714-.737 1.396-1.382 2.08-.645.65-1.352 1.147-2.059 1.427-.706.279-1.505.434-2.427.434h-8.663c-.922 0-1.72-.155-2.427-.434-.707-.28-1.383-.745-2.059-1.397-.645-.652-1.106-1.334-1.382-2.048-.277-.714-.4-1.552-.4-2.483 0-.434.154-.838.461-1.148a1.52 1.52 0 0 1 1.137-.466c.43 0 .799.155 1.075.466.277.31.43.683.43 1.148 0 .9.308 1.645.953 2.266.614.62 1.413.962 2.335.962h8.356c.952 0 1.72-.31 2.366-.962a3.18 3.18 0 0 0 .952-2.297v-6.238c0-.9-.307-1.645-.952-2.296-.338-.342-.676-.59-1.014-.745-.338-.155-.737-.217-1.198-.217h-8.418c-.922 0-1.72-.156-2.427-.435-.707-.28-1.383-.745-2.059-1.428-.645-.651-1.106-1.365-1.382-2.079-.277-.714-.4-1.552-.4-2.483v-5.958c0-.745.154-1.49.492-2.173.338-.682.737-1.334 1.26-1.862a5.878 5.878 0 0 1 1.75-1.303c.646-.31 1.291-.466 1.936-.466h9.063c.922 0 1.72.155 2.427.435.707.28 1.383.745 2.059 1.427.676.683 1.106 1.366 1.382 2.08.277.713.4 1.551.4 2.482 0 .435-.154.838-.461 1.149a1.52 1.52 0 0 1-1.137.465c-.43 0-.799-.155-1.075-.465a1.657 1.657 0 0 1-.43-1.149c0-.9-.307-1.644-.953-2.265-.645-.652-1.413-.993-2.242-.993h-8.05c-.921 0-1.69.31-2.334.93-.646.622-.953 1.397-.953 2.297v5.4zm27.466-8.192c.522 0 .983.186 1.352.558.368.372.553.869.553 1.428 0 .527-.185.993-.553 1.365a1.85 1.85 0 0 1-1.352.559c-.523 0-.983-.187-1.383-.559a1.797 1.797 0 0 1-.583-1.365c0-.56.184-1.056.553-1.428a2.013 2.013 0 0 1 1.413-.559zm1.505 28.613a1.6 1.6 0 0 1-.46 1.148 1.5 1.5 0 0 1-1.107.466 1.5 1.5 0 0 1-1.106-.466 1.552 1.552 0 0 1-.46-1.148V25.945a1.6 1.6 0 0 1 .46-1.148 1.5 1.5 0 0 1 1.106-.466 1.5 1.5 0 0 1 1.106.466c.308.31.461.682.461 1.148v20.048zm8.08-15.083c0-.993.154-1.893.492-2.73.338-.839.768-1.552 1.351-2.142a6.383 6.383 0 0 1 2.059-1.397c.768-.341 1.628-.496 2.488-.496h6.206c.43 0 .891.062 1.321.217.43.155.86.31 1.229.497.369.186.707.403 1.014.62.307.249.553.435.737.621V15.486c0-.341.154-.683.43-1.024a1.262 1.262 0 0 1 1.045-.496c.43 0 .83.155 1.137.465.338.31.491.683.491 1.148v30.383c0 .435-.153.838-.491 1.148-.338.31-.707.466-1.137.466-.4 0-.737-.155-1.045-.497-.276-.341-.43-.682-.43-1.024v-.248c-.184.186-.43.403-.737.652a5.683 5.683 0 0 1-1.014.651c-.369.187-.799.342-1.229.497a3.93 3.93 0 0 1-1.32.217h-6.207c-.89 0-1.72-.155-2.488-.496a6.383 6.383 0 0 1-2.059-1.397 5.902 5.902 0 0 1-1.351-2.141c-.338-.807-.492-1.738-.492-2.762V30.91zm16.866-.558c0-.435-.122-.87-.399-1.242-.276-.372-.584-.713-.983-.993-.4-.28-.83-.496-1.321-.651-.492-.156-.952-.249-1.383-.249l-6.39.062c-.921 0-1.69.31-2.335.931s-.952 1.397-.952 2.297v10.955c0 .931.307 1.676.952 2.297.646.62 1.414.93 2.335.93h6.39c.43 0 .891-.092 1.383-.248a4.783 4.783 0 0 0 1.321-.651c.4-.28.707-.621.983-.993.277-.373.4-.776.4-1.242V30.352zm30.569 5.555c0 .434-.154.807-.43 1.117-.277.31-.645.435-1.137.435h-15.146v3.786c0 .9.307 1.645.922 2.265.614.621 1.352.931 2.243.931h10.015c.43 0 .83.156 1.137.435.307.31.46.652.46 1.086 0 .435-.153.807-.46 1.117a1.52 1.52 0 0 1-1.137.466H225.47c-.891 0-1.69-.155-2.458-.466-.768-.31-1.444-.745-1.997-1.334a6.03 6.03 0 0 1-1.321-2.017c-.307-.776-.461-1.614-.461-2.545V29.917c0-.745.154-1.49.491-2.172.338-.683.738-1.304 1.26-1.862a6.168 6.168 0 0 1 1.72-1.304c.646-.31 1.29-.465 1.936-.465h8.356c.738 0 1.475.155 2.212.496a8.178 8.178 0 0 1 1.936 1.304c.584.527 1.014 1.18 1.352 1.893.338.714.522 1.459.522 2.234v5.866zm-16.713-1.552h13.58v-4.314c0-.31-.093-.651-.246-.993a3.94 3.94 0 0 0-.646-.9 3.13 3.13 0 0 0-.921-.651 2.46 2.46 0 0 0-1.045-.249h-7.834c-.338 0-.676.093-1.045.249a3.13 3.13 0 0 0-.921.651c-.277.28-.492.59-.645.9a1.981 1.981 0 0 0-.246.993v4.314h-.03z" fill="#FFF"/><g transform="translate(308.45)" fill="#404042"><ellipse cx="15.607" cy="23.307" rx="4.332" ry="4.376"/><ellipse cx="15.607" cy="36.031" rx="4.332" ry="4.376"/><path d="M.092 15.859L15.668.155l15.576 15.766-3.41 3.413L15.607 7.231 3.564 19.397"/><ellipse cx="15.73" cy="48.569" rx="4.332" ry="4.376"/><path d="M31.244 56.017L15.668 71.721.092 55.955l3.41-3.414L15.73 64.645 27.773 52.51"/></g></g></svg>